<svg width="15" height="9" viewBox="0 0 15 9" fill="none" xmlns="http://www.w3.org/2000/svg">
<path d="M0.729508 1.66371C0.728743 1.79537 0.754076 1.92589 0.804053 2.04778C0.85403 2.16967 0.92767 2.28053 1.02075 2.37401L7.04637 8.37656C7.23453 8.56289 7.48906 8.66748 7.75438 8.66748C8.01969 8.66748 8.27423 8.56289 8.46239 8.37656L14.488 2.37401C14.6525 2.18263 14.7385 1.93645 14.7287 1.68467C14.719 1.43288 14.6142 1.19404 14.4353 1.01587C14.2565 0.837702 14.0167 0.733325 13.764 0.7236C13.5112 0.713875 13.2641 0.799518 13.072 0.963414L7.7594 6.25566L2.44681 0.963414C2.30694 0.822933 2.1284 0.726921 1.93376 0.687519C1.73912 0.648118 1.53712 0.667095 1.35331 0.742053C1.16949 0.81701 1.01212 0.944581 0.901085 1.10863C0.790049 1.27269 0.730341 1.46585 0.729508 1.66371Z" fill="#B09C89"/>
</svg>
