<svg width="76" height="76" viewBox="0 0 76 76" fill="none" xmlns="http://www.w3.org/2000/svg">
<g filter="url(#filter0_d_125_2833)">
<circle cx="25" cy="25" r="25" transform="matrix(-1 0 0 1 63 9)" fill="#47A542"/>
<circle cx="25" cy="25" r="26.5" transform="matrix(-1 0 0 1 63 9)" stroke="#F4F0E9" stroke-width="3"/>
</g>
<g clip-path="url(#clip0_125_2833)">
<path d="M45.2904 34.9901L36.6907 43.5895C36.1436 44.1369 35.2567 44.1369 34.7099 43.5895C34.1631 43.0427 34.1631 42.1558 34.7099 41.609L42.3193 33.9999L34.7101 26.3909C34.1633 25.8439 34.1633 24.9571 34.7101 24.4103C35.257 23.8632 36.1439 23.8632 36.6909 24.4103L45.2906 33.0098C45.564 33.2834 45.7006 33.6415 45.7006 33.9998C45.7006 34.3583 45.5638 34.7167 45.2904 34.9901Z" fill="white"/>
</g>
<defs>
<filter id="filter0_d_125_2833" x="0" y="0" width="76" height="76" filterUnits="userSpaceOnUse" color-interpolation-filters="sRGB">
<feFlood flood-opacity="0" result="BackgroundImageFix"/>
<feColorMatrix in="SourceAlpha" type="matrix" values="0 0 0 0 0 0 0 0 0 0 0 0 0 0 0 0 0 0 127 0" result="hardAlpha"/>
<feOffset dy="4"/>
<feGaussianBlur stdDeviation="5"/>
<feComposite in2="hardAlpha" operator="out"/>
<feColorMatrix type="matrix" values="0 0 0 0 0.0862745 0 0 0 0 0.72549 0 0 0 0 1 0 0 0 0.15 0"/>
<feBlend mode="normal" in2="BackgroundImageFix" result="effect1_dropShadow_125_2833"/>
<feBlend mode="normal" in="SourceGraphic" in2="effect1_dropShadow_125_2833" result="shape"/>
</filter>
<clipPath id="clip0_125_2833">
<rect width="20" height="20" fill="white" transform="translate(27 24)"/>
</clipPath>
</defs>
</svg>
