<svg width="60" height="60" viewBox="0 0 60 60" fill="none" xmlns="http://www.w3.org/2000/svg">
<g clip-path="url(#clip0_125_2827)">
<path d="M41.3064 38.439C38.8935 38.439 20.8987 38.439 18.6924 38.439C18.0452 38.439 17.5205 38.9637 17.5205 39.6108C17.5205 46.4917 23.1186 52.0897 29.9993 52.0897C36.8801 52.0897 42.4782 46.4916 42.4782 39.6108C42.4783 38.9636 41.9536 38.439 41.3064 38.439ZM31.1713 40.7827H33.3503V42.9618H31.1713V40.7827ZM28.8276 40.7827V42.9618H26.6486V40.7827H28.8276ZM29.9995 49.7459C24.8072 49.7459 20.5144 45.8212 19.9316 40.7827H24.3048V44.1337C24.3048 44.7809 24.8296 45.3056 25.4767 45.3056H34.5222C35.1693 45.3056 35.6941 44.7809 35.6941 44.1337V40.7827H40.0673C39.4845 45.8212 35.1917 49.7459 29.9995 49.7459Z" fill="#47A542"/>
<path d="M22.6498 31.7372C25.1665 31.7372 27.2139 29.6898 27.2139 27.1733C27.2139 26.5261 26.6891 26.0015 26.042 26.0015C25.3948 26.0015 24.8702 26.5261 24.8702 27.1733C24.8702 28.3975 23.8741 29.3935 22.6498 29.3935C21.4257 29.3935 20.4297 28.3975 20.4297 27.1733C20.4297 26.5261 19.9049 26.0015 19.2578 26.0015C18.6106 26.0015 18.0859 26.5261 18.0859 27.1733C18.0859 29.6899 20.1333 31.7372 22.6498 31.7372Z" fill="#47A542"/>
<path d="M41.872 26.0015C41.2249 26.0015 40.7001 26.5261 40.7001 27.1733C40.7001 28.3975 39.7041 29.3935 38.4799 29.3935C37.2557 29.3935 36.2598 28.3975 36.2598 27.1733C36.2598 26.5261 35.735 26.0015 35.0879 26.0015C34.4408 26.0015 33.916 26.5261 33.916 27.1733C33.916 29.6899 35.9634 31.7372 38.4799 31.7372C40.9965 31.7372 43.0439 29.6898 43.0439 27.1733C43.0439 26.5261 42.5192 26.0015 41.872 26.0015Z" fill="#47A542"/>
<path d="M52.0096 24.9434C49.6004 19.0825 44.9167 14.389 39.0623 11.9673C39.4251 6.64563 35.1847 2.25684 29.9995 2.25684C24.7902 2.25684 20.5744 6.67152 20.9362 11.9676C15.0821 14.3893 10.3985 19.0829 7.98947 24.9435C3.43381 25.4913 -0.000488281 29.3608 -0.000488281 33.9573C-0.000488281 38.5459 3.42561 42.4221 7.98947 42.9713C11.5486 51.6299 20.0729 57.7431 29.9995 57.7431C39.9261 57.7431 48.4505 51.6299 52.0096 42.9712C56.5638 42.4236 59.9995 38.5557 59.9995 33.9573C59.9995 29.3679 56.5729 25.4931 52.0096 24.9434ZM29.9995 4.60047C33.6511 4.60047 36.6319 7.51855 36.7373 11.1452C32.4015 9.8623 27.7017 9.83137 23.2617 11.1452C23.3672 7.51855 26.3479 4.60047 29.9995 4.60047ZM7.0965 40.3979C4.3235 39.5444 2.34326 36.9658 2.34326 33.9573C2.34326 30.9568 4.31729 28.3717 7.09662 27.5159C5.92252 31.6935 5.9176 36.2012 7.0965 40.3979ZM29.9995 55.3994C18.6003 55.3994 9.37615 46.4731 8.61619 35.5416C7.70131 23.1116 17.5658 12.5153 29.9995 12.5153C32.2244 12.5153 34.3713 12.8562 36.3907 13.4881C35.4924 16.1576 32.9679 18.0864 29.9995 18.0864C29.3523 18.0864 28.8276 18.6111 28.8276 19.2583C28.8276 19.9054 29.3523 20.4302 29.9995 20.4302C33.9706 20.4302 37.3526 17.8686 38.5857 14.3117C47.0414 18.0216 52.3029 26.8018 51.3274 36.175C50.214 46.9602 41.074 55.3994 29.9995 55.3994ZM52.9026 40.3979C54.0755 36.2232 54.0822 31.7171 52.9026 27.5166C55.6806 28.3716 57.6558 30.9544 57.6558 33.9572C57.6558 36.9643 55.6768 39.5441 52.9026 40.3979Z" fill="#47A542"/>
</g>
<defs>
<clipPath id="clip0_125_2827">
<rect width="60" height="60" fill="white" transform="translate(-0.000488281)"/>
</clipPath>
</defs>
</svg>
