<svg width="56" height="56" viewBox="0 0 56 56" fill="none" xmlns="http://www.w3.org/2000/svg">
<path d="M14.4553 41.9769C14.4553 42.5725 13.9722 43.0556 13.3766 43.0556C12.7816 43.0556 12.2985 42.5725 12.2985 41.9769C12.2985 41.3812 12.7816 40.8981 13.3766 40.8981C13.9728 40.8981 14.4553 41.3812 14.4553 41.9769ZM23.3516 43.0556C23.9478 43.0556 24.4303 42.5725 24.4303 41.9769C24.4303 41.3812 23.9472 40.8981 23.3516 40.8981C22.7566 40.8981 22.2728 41.3812 22.2728 41.9769C22.2722 42.5725 22.756 43.0556 23.3516 43.0556ZM18.3641 47.4369C20.1235 47.4369 21.5553 46.0013 21.5553 44.2419H18.8466C18.8466 44.7775 17.881 44.7775 17.881 44.2419H15.1722C15.1722 46.0013 16.6047 47.4369 18.3641 47.4369ZM32.7828 22.2262C32.191 22.2262 31.7103 22.7069 31.7103 23.2987C31.7103 23.8906 32.191 24.3706 32.7828 24.3706C33.3747 24.3706 33.8553 23.8906 33.8553 23.2987C33.8553 22.7069 33.3747 22.2262 32.7828 22.2262ZM42.6941 24.3706C43.286 24.3706 43.7653 23.8906 43.7653 23.2987C43.7653 22.7069 43.286 22.2262 42.6941 22.2262C42.1022 22.2262 41.6216 22.7069 41.6216 23.2987C41.6216 23.8906 42.1022 24.3706 42.6941 24.3706ZM37.2666 25.5494H34.5578C34.5578 27.3025 35.9847 28.7312 37.7378 28.7312C39.491 28.7312 40.9178 27.3025 40.9178 25.5494H38.2091C38.2091 26.0719 37.2666 26.0719 37.2666 25.5494ZM55.1741 22.9794C55.1741 25.4994 53.1235 27.5531 50.6035 27.5531H50.5322C50.5203 27.5844 50.511 27.6187 50.4991 27.6488L50.2841 28.2375C49.0503 31.0025 46.9935 33.1388 44.4435 34.3756C43.3866 34.885 42.3135 35.2225 41.1541 35.4075C40.5722 35.52 39.8722 35.5994 39.2128 35.5994H36.6053C35.7222 35.5994 34.9122 35.5037 34.196 35.315C34.0447 35.2975 33.8585 35.2425 33.6916 35.2081V37.0544C33.6916 37.8019 33.0847 38.4106 32.3372 38.4106H31.9122V38.4881C34.1585 38.7856 35.9022 40.6931 35.9022 43.0181C35.9022 45.5513 33.8435 47.6119 31.3116 47.6119H31.2303C29.6516 52.185 25.3503 55.5 20.2472 55.5H17.031C11.9278 55.5 7.62658 52.185 6.04721 47.6119H5.41533C2.88346 47.6119 0.824707 45.5513 0.824707 43.0181C0.824707 40.505 2.85721 38.46 5.36533 38.4325V38.4112H4.73533C3.98783 38.4112 3.38096 37.8025 3.38096 37.055V33.9725C3.38096 29.7669 6.52846 26.2506 10.711 25.4006L9.12908 23.0881L11.3647 21.56L12.7622 23.6031L13.9266 21.5569L16.2816 22.8931L14.9703 25.1981H20.901C20.5303 24.5375 20.3016 23.7881 20.3016 22.9788C20.3016 21.1944 21.3566 19.685 22.8516 18.9325V17.2375C22.8516 15.685 23.1722 14.1881 23.6641 12.7356C21.7766 11.5419 20.536 9.47813 20.536 7.17625C20.5366 3.49625 23.5185 0.5 27.1828 0.5C29.5791 0.5 31.686 1.81313 32.8603 3.80375C34.1766 3.395 35.5597 3.11937 36.9653 3.11937H38.8403C40.1478 3.11937 41.4285 3.35812 42.6853 3.71938C43.8753 1.78062 45.9616 0.5 48.2947 0.5C51.9591 0.5 54.941 3.49625 54.941 7.1775C54.941 9.34688 53.8328 11.3119 52.0991 12.5375C52.6335 14.0588 52.9828 15.6462 52.9828 17.2381V19.175C54.2697 19.985 55.1741 21.3506 55.1741 22.9794ZM48.2947 3.21187C47.0478 3.21187 45.9228 3.77625 45.1935 4.7125C47.5678 5.91187 49.5616 7.76625 50.9435 10.0638C51.7441 9.33438 52.2322 8.295 52.2322 7.1775C52.2322 4.99125 50.466 3.21187 48.2947 3.21187ZM36.966 5.83125C35.501 5.83125 34.031 6.11875 32.7178 6.66125C29.9497 7.74937 27.701 9.92875 26.5247 12.6506C25.8847 14.1056 25.5603 15.6469 25.5603 17.2381V18.3594C25.6728 18.3288 25.781 18.29 25.9028 18.29H32.7785C33.711 18.29 34.6403 18.0912 35.1153 16.6494C35.4066 15.6869 36.0047 15.3725 36.4547 15.28C37.4866 15.0719 38.1516 15.8719 38.7366 16.5731C39.3747 17.3369 40.1672 18.2894 41.1428 18.2894H49.881C50.021 18.2894 50.1478 18.33 50.2747 18.3687V17.2375C50.2747 15.63 49.9241 14.0031 49.2628 12.5281C48.006 9.79 45.671 7.61375 42.8635 6.57188C41.5603 6.07938 40.211 5.83125 38.8416 5.83125H36.966ZM23.011 22.9794C23.011 23.9244 23.7272 24.6737 24.6378 24.7937C24.5916 24.4075 24.5485 24.0163 24.5485 23.6075V21.1856C23.6822 21.345 23.011 22.0694 23.011 22.9794ZM23.2453 7.1775C23.2453 8.41125 23.826 9.55062 24.7585 10.2775C26.0728 7.96062 28.0228 6.07188 30.376 4.83375C29.6497 3.83687 28.4766 3.2125 27.1828 3.2125C25.0116 3.21188 23.2453 4.99125 23.2453 7.1775ZM6.09096 33.9731V35.8594C6.28221 35.7569 6.48971 35.6831 6.72096 35.6831H9.20783C10.2066 35.6831 11.1028 35.0744 11.4897 34.1319C12.1316 32.5375 12.5147 31.5788 13.6641 31.7275C14.2828 31.81 14.7822 32.3325 14.8516 32.9513C14.8897 33.1169 15.0316 33.4769 15.2235 33.8313C15.3722 34.1087 15.5341 34.3538 15.7116 34.605C16.1647 35.2962 16.9185 35.6831 17.7603 35.6831H30.5578C30.701 35.6831 30.8316 35.7238 30.9603 35.765L30.9828 33.9731C30.9828 33.8406 30.9878 33.7088 30.9666 33.5763C30.7353 30.9369 28.8072 28.7906 26.156 28.1425C25.5691 27.9869 24.9735 27.9113 24.4128 27.9113H12.6603C9.03721 27.9106 6.09096 30.6294 6.09096 33.9731ZM5.47408 44.9C5.44096 44.5438 5.36658 44.1994 5.36658 43.835V41.15C4.35346 41.1781 3.53408 42.0006 3.53408 43.0187C3.53408 44.0575 4.37908 44.9006 5.41596 44.9006L5.47408 44.9ZM29.2035 38.395H17.7603C16.006 38.395 14.4066 37.5519 13.481 36.1425C12.5647 37.5081 10.9641 38.395 9.20783 38.395H8.07533V43.8356C8.07533 48.7731 12.0935 52.7881 17.0316 52.7881H20.2478C25.1853 52.7881 29.2041 48.7731 29.2041 43.8356L29.2035 38.395ZM31.9122 41.2613V43.835C31.9122 44.165 31.8422 44.4756 31.8147 44.7981C32.6035 44.5737 33.1941 43.8781 33.1941 43.0181C33.1941 42.1956 32.6522 41.5144 31.9122 41.2613ZM48.5266 21.0019H41.1428C39.2328 21.0019 37.9316 19.7812 37.0697 18.7956C36.3535 19.9169 35.0735 21.0019 32.7785 21.0019H27.2572V23.6081C27.2572 24.3525 27.3747 25.0931 27.5947 25.7544L27.5978 25.7694C30.6372 26.8 32.8797 29.2862 33.4941 32.3075C33.9072 32.4462 34.3291 32.6112 34.7153 32.6631C35.3735 32.825 35.9541 32.8881 36.6053 32.8881H39.2128C39.7041 32.8881 40.2247 32.8288 40.686 32.7425C41.6203 32.5906 42.4503 32.3294 43.2622 31.9387C45.2385 30.9794 46.8391 29.3162 47.7616 27.2525L47.9635 26.69C48.0728 26.4056 48.1853 26.1081 48.276 25.8006C48.3997 25.0138 48.526 24.3125 48.526 23.6081L48.5266 21.0019ZM52.4653 22.9794C52.4653 22.1775 51.9485 21.5087 51.2353 21.2481V23.6081C51.2353 23.9844 51.2003 24.3587 51.1591 24.7294C51.9103 24.4894 52.4653 23.8106 52.4653 22.9794Z" fill="#47A542" stroke="#F4F0E9" stroke-width="0.5"/>
</svg>
