<svg width="254" height="380" viewBox="0 0 254 380" fill="none" xmlns="http://www.w3.org/2000/svg">
<path fill-rule="evenodd" clip-rule="evenodd" d="M109.786 80.2816C129.299 76.2559 141.367 69.4036 166.357 74.8854C184.929 78.9111 199.393 87.2195 211.461 97.6692C271.199 149.661 266.149 250.903 208.037 296.556C173.119 323.965 149.069 320.539 105.164 308.462C104.822 309.062 104.48 310.004 104.394 310.518L102.939 314.715C96.8625 336.813 91.1284 377.327 44.9125 379.126C-0.533081 380.839 -9.43393 345.379 -17.8212 320.025C-19.8753 313.858 -18.8483 316.942 -20.0464 315.143C-32.0284 334.758 -44.3525 350.09 -69.001 356.77C-101.095 365.421 -112.564 352.402 -133.703 342.295C-248.045 457.07 -368.291 282.852 -285.616 178.869C-260.626 147.519 -233.324 139.297 -187.108 142.123C-180.946 124.222 -170.933 111.459 -160.235 101.352C-139.694 81.8233 -127.712 87.0482 -120.01 78.1403C-112.735 69.6606 -99.2125 30.774 -55.1363 11.0737C-20.8167 -4.34389 15.3001 -3.74431 47.8224 13.3864C67.9348 24.0074 84.8807 40.5384 97.804 60.2387C102.169 66.834 105.079 74.3715 109.786 80.2816Z" fill="#FDFFFD"/>
</svg>
