<svg width="316" height="471" viewBox="0 0 316 471" fill="none" xmlns="http://www.w3.org/2000/svg">
<path d="M398.497 281.226C396.796 281.571 395.257 282.469 394.12 283.782C392.984 285.094 392.315 286.746 392.217 288.48C390.925 311.413 381.927 333.239 366.681 350.419C351.434 367.599 330.833 379.128 308.215 383.137C285.598 387.145 262.289 383.399 242.067 372.504C221.845 361.61 205.894 344.207 196.799 323.114C196.355 322.087 195.695 321.166 194.866 320.415C194.036 319.664 193.055 319.098 191.989 318.757C190.923 318.416 189.796 318.306 188.684 318.436C187.572 318.566 186.501 318.933 185.543 319.511C175.309 325.705 163.666 329.193 151.712 329.647C139.758 330.1 127.885 327.504 117.211 322.103C106.538 316.702 97.4138 308.673 90.6991 298.772C83.9844 288.872 79.8998 277.425 78.8296 265.511C78.7363 264.44 78.4242 263.399 77.9124 262.454C77.4006 261.509 76.7002 260.679 75.8545 260.016C75.0137 259.352 74.0446 258.87 73.0084 258.6C71.9721 258.33 70.8911 258.277 69.8335 258.446C62.7905 259.542 55.5905 259.025 48.7762 256.934C41.9619 254.843 35.711 251.233 30.4945 246.376C25.2779 241.519 21.2319 235.541 18.6612 228.893C16.0904 222.245 15.0621 215.1 15.6537 207.997C16.2453 200.893 18.4413 194.017 22.0764 187.886C25.7114 181.755 30.6905 176.528 36.6387 172.601C42.5869 168.673 49.3488 166.147 56.4151 165.212C63.4814 164.278 70.6676 164.959 77.4323 167.205C78.4811 167.539 79.5879 167.652 80.6825 167.535C81.7771 167.419 82.8356 167.077 83.7908 166.53C84.7435 165.977 85.5692 165.23 86.2143 164.338C86.8594 163.445 87.3095 162.427 87.5353 161.349C89.3346 152.757 93.1704 144.723 98.72 137.922C104.27 131.121 111.371 125.752 119.427 122.266C127.483 118.78 136.258 117.279 145.015 117.889C153.771 118.499 162.254 121.203 169.748 125.773C171.457 126.809 173.497 127.154 175.451 126.738C177.406 126.323 179.128 125.177 180.267 123.535C189.547 110.124 202.439 99.6173 217.447 93.2344C232.456 86.8515 248.966 84.8535 265.064 87.4722C281.161 90.0909 296.187 97.219 308.398 108.03C320.609 118.841 329.506 132.892 334.057 148.553C334.401 149.731 335.016 150.811 335.853 151.708C336.69 152.605 337.725 153.293 338.876 153.718C340.027 154.142 341.262 154.291 342.48 154.152C343.699 154.013 344.868 153.59 345.895 152.918C354.605 147.187 364.475 143.454 374.798 141.988C385.121 140.523 395.641 141.36 405.602 144.44C415.563 147.521 424.719 152.768 432.413 159.805C440.106 166.842 446.147 175.494 450.102 185.142C454.056 194.79 455.826 205.193 455.285 215.605C454.743 226.018 451.904 236.181 446.97 245.367C442.037 254.552 435.131 262.532 426.749 268.733C418.367 274.934 408.716 279.203 398.49 281.234L398.497 281.226Z" fill="#FDFFFD"/>
</svg>
