<svg width="304" height="512" viewBox="0 0 304 512" fill="none" xmlns="http://www.w3.org/2000/svg">
<path d="M225.186 206.293C223.337 205.919 221.663 204.942 220.428 203.515C219.193 202.089 218.465 200.293 218.36 198.409C216.955 173.479 207.174 149.753 190.6 131.077C174.026 112.401 151.632 99.8694 127.045 95.5119C102.459 91.1544 77.1216 95.2269 55.1391 107.069C33.1566 118.912 15.8172 137.831 5.93074 160.759C5.44719 161.876 4.73041 162.876 3.82849 163.693C2.92657 164.51 1.86038 165.125 0.701462 165.496C-0.457474 165.867 -1.68233 165.985 -2.89095 165.844C-4.09956 165.703 -5.26398 165.305 -6.30606 164.676C-17.4309 157.943 -30.0864 154.151 -43.0811 153.658C-56.0758 153.165 -68.9823 155.987 -80.5853 161.858C-92.1884 167.73 -102.106 176.458 -109.406 187.22C-116.705 197.982 -121.145 210.425 -122.308 223.377C-122.41 224.541 -122.749 225.672 -123.305 226.699C-123.862 227.727 -124.623 228.629 -125.542 229.35C-126.456 230.071 -127.51 230.595 -128.636 230.889C-129.763 231.183 -130.938 231.24 -132.087 231.057C-139.744 229.866 -147.57 230.427 -154.978 232.7C-162.385 234.973 -169.18 238.897 -174.851 244.177C-180.522 249.457 -184.92 255.956 -187.714 263.182C-190.509 270.409 -191.627 278.176 -190.984 285.898C-190.34 293.619 -187.953 301.094 -184.002 307.759C-180.05 314.424 -174.638 320.105 -168.172 324.375C-161.706 328.644 -154.355 331.39 -146.674 332.406C-138.993 333.422 -131.181 332.681 -123.827 330.24C-122.687 329.877 -121.484 329.754 -120.294 329.881C-119.104 330.007 -117.954 330.379 -116.915 330.974C-115.88 331.575 -114.982 332.386 -114.281 333.357C-113.579 334.327 -113.09 335.434 -112.845 336.606C-110.889 345.945 -106.719 354.679 -100.686 362.072C-94.6537 369.465 -86.9342 375.301 -78.177 379.091C-69.4197 382.88 -59.8806 384.512 -50.3617 383.849C-40.8427 383.185 -31.6222 380.246 -23.4751 375.279C-21.6176 374.153 -19.4006 373.777 -17.2759 374.229C-15.1512 374.681 -13.2789 375.926 -12.0405 377.711C-1.95258 392.29 12.0612 403.711 28.3761 410.65C44.6909 417.588 62.6383 419.76 80.1372 416.913C97.6361 414.067 113.97 406.318 127.244 394.566C140.518 382.814 150.189 367.54 155.136 350.515C155.51 349.235 156.179 348.061 157.089 347.086C157.998 346.111 159.124 345.363 160.375 344.901C161.626 344.44 162.968 344.279 164.293 344.429C165.618 344.58 166.889 345.04 168.004 345.771C177.473 352.001 188.202 356.058 199.424 357.652C210.646 359.245 222.081 358.335 232.909 354.986C243.737 351.638 253.69 345.934 262.054 338.285C270.417 330.635 276.984 321.229 281.282 310.742C285.581 300.254 287.505 288.945 286.917 277.626C286.328 266.308 283.242 255.259 277.879 245.274C272.516 235.289 265.009 226.615 255.897 219.874C246.786 213.133 236.295 208.492 225.178 206.285L225.186 206.293Z" fill="#FDFFFD"/>
</svg>
