<svg width="284" height="264" viewBox="0 0 284 264" fill="none" xmlns="http://www.w3.org/2000/svg">
<path fill-rule="evenodd" clip-rule="evenodd" d="M131.985 246.983C143.685 253.083 146.785 258.083 161.885 261.483C178.285 265.083 188.385 261.683 202.485 258.783C229.385 241.383 243.885 233.783 246.385 190.983C250.285 187.583 256.485 185.583 261.585 181.383C293.485 155.383 296.185 96.3827 234.885 78.6827C230.385 61.6827 225.585 50.8827 214.185 41.4827C200.985 30.5827 190.685 28.8827 169.185 28.2827C161.085 18.0827 157.785 12.1827 144.385 5.68267C112.085 -10.0173 67.5854 7.2827 62.2854 51.7827C51.7854 53.6827 44.5854 50.5827 32.2854 54.4827C6.68539 62.4827 -6.21458 82.5827 -8.11458 110.483C-31.5146 110.383 -42.2146 109.183 -58.8146 122.283C-85.8146 143.583 -86.8146 185.483 -62.9146 208.683C-50.5146 220.783 -41.0146 222.983 -18.8146 225.483C0.285408 273.783 62.2854 275.083 86.9854 231.083C100.585 230.583 103.785 230.283 115.185 226.883C116.085 227.583 131.585 246.383 131.985 246.983Z" fill="#FDFFFD"/>
</svg>
