<svg width="315" height="444" viewBox="0 0 315 444" fill="none" xmlns="http://www.w3.org/2000/svg">
<path fill-rule="evenodd" clip-rule="evenodd" d="M493.996 93.7285C516.796 89.0285 530.896 81.0285 560.096 87.4285C581.796 92.1285 598.696 101.829 612.796 114.029C682.596 174.729 676.696 292.929 608.796 346.229C567.996 378.229 539.896 374.229 488.596 360.129C488.196 360.829 487.796 361.929 487.696 362.529L485.996 367.429C478.896 393.229 472.196 440.529 418.196 442.629C365.096 444.629 354.696 403.229 344.896 373.629C342.496 366.428 343.696 370.029 342.296 367.929C328.296 390.829 313.896 408.729 285.096 416.529C247.596 426.629 234.196 411.428 209.496 399.629C75.8958 533.629 -64.6042 330.229 31.9958 208.829C61.1958 172.229 93.0958 162.629 147.096 165.929C154.296 145.029 165.996 130.129 178.496 118.329C202.496 95.5285 216.496 101.629 225.496 91.2285C233.996 81.3285 249.796 35.9285 301.296 12.9285C341.396 -5.07148 383.596 -4.37147 421.596 15.6285C445.096 28.0285 464.896 47.3285 479.996 70.3285C485.096 78.0285 488.496 86.8285 493.996 93.7285Z" fill="#FDFFFD"/>
</svg>
