<svg width="254" height="363" viewBox="0 0 254 363" fill="none" xmlns="http://www.w3.org/2000/svg">
<path d="M55.878 146.259C57.1893 145.993 58.3756 145.301 59.2514 144.289C60.1271 143.278 60.6429 142.004 60.718 140.668C61.7137 122.994 68.6487 106.173 80.3991 92.9317C92.1496 79.6908 108.027 70.8058 125.458 67.7164C142.89 64.627 160.853 67.5143 176.439 75.9105C192.024 84.3067 204.317 97.7197 211.327 113.976C211.67 114.768 212.178 115.477 212.817 116.056C213.457 116.635 214.212 117.071 215.034 117.334C215.856 117.597 216.724 117.681 217.581 117.581C218.438 117.481 219.264 117.198 220.002 116.753C227.89 111.979 236.862 109.29 246.075 108.941C255.288 108.591 264.439 110.592 272.665 114.755C280.892 118.918 287.923 125.106 293.098 132.736C298.273 140.366 301.421 149.188 302.246 158.371C302.318 159.196 302.559 159.998 302.953 160.726C303.347 161.455 303.887 162.094 304.539 162.606C305.187 163.117 305.934 163.488 306.733 163.697C307.531 163.905 308.364 163.945 309.179 163.816C314.607 162.971 320.156 163.369 325.408 164.981C330.66 166.592 335.478 169.374 339.498 173.118C343.518 176.861 346.637 181.468 348.618 186.592C350.599 191.716 351.392 197.222 350.936 202.697C350.48 208.171 348.787 213.471 345.986 218.196C343.184 222.922 339.347 226.949 334.763 229.976C330.178 233.003 324.967 234.95 319.521 235.671C314.075 236.391 308.537 235.866 303.323 234.135C302.515 233.877 301.662 233.791 300.818 233.88C299.974 233.97 299.159 234.234 298.422 234.655C297.688 235.081 297.052 235.657 296.555 236.345C296.058 237.033 295.711 237.817 295.537 238.648C294.15 245.27 291.194 251.462 286.917 256.703C282.639 261.945 277.166 266.083 270.958 268.769C264.749 271.456 257.986 272.613 251.237 272.143C244.488 271.672 237.951 269.589 232.175 266.067C230.858 265.268 229.286 265.002 227.78 265.323C226.273 265.643 224.946 266.526 224.068 267.791C216.916 278.127 206.98 286.225 195.413 291.144C183.846 296.063 171.122 297.603 158.715 295.585C146.309 293.567 134.729 288.073 125.317 279.741C115.906 271.409 109.049 260.58 105.542 248.51C105.277 247.602 104.803 246.77 104.158 246.078C103.513 245.387 102.715 244.857 101.828 244.53C100.941 244.203 99.9896 244.088 99.0503 244.195C98.1109 244.302 97.2098 244.628 96.419 245.146C89.7062 249.563 82.0989 252.44 74.1429 253.569C66.187 254.699 58.0796 254.054 50.4025 251.68C42.7254 249.306 35.669 245.262 29.7394 239.838C23.8099 234.415 19.1543 227.746 16.1066 220.311C13.0589 212.875 11.6948 204.858 12.112 196.833C12.5293 188.808 14.7176 180.975 18.5199 173.896C22.3222 166.816 27.6443 160.666 34.1043 155.887C40.5644 151.108 48.0021 147.818 55.884 146.253L55.878 146.259Z" fill="#FDFFFD"/>
</svg>
