<svg width="247" height="446" viewBox="0 0 247 446" fill="none" xmlns="http://www.w3.org/2000/svg">
<path d="M178.346 266.299C176.735 266.625 175.277 267.476 174.201 268.719C173.125 269.962 172.491 271.526 172.399 273.168C171.176 294.884 162.655 315.551 148.218 331.819C133.781 348.088 114.273 359.004 92.8558 362.8C71.4388 366.596 49.3675 363.048 30.2187 352.732C11.0699 342.417 -4.03435 325.937 -12.6464 305.963C-13.0676 304.991 -13.692 304.119 -14.4777 303.408C-15.2633 302.696 -16.1921 302.161 -17.2016 301.838C-18.2111 301.515 -19.2781 301.411 -20.3309 301.534C-21.3837 301.657 -22.3981 302.004 -23.3058 302.552C-32.9966 308.417 -44.0207 311.72 -55.3403 312.15C-66.66 312.579 -77.9026 310.121 -88.01 305.006C-98.1173 299.892 -106.757 292.289 -113.115 282.914C-119.473 273.539 -123.341 262.7 -124.355 251.418C-124.443 250.404 -124.739 249.419 -125.223 248.524C-125.708 247.629 -126.371 246.843 -127.172 246.214C-127.968 245.586 -128.886 245.13 -129.867 244.874C-130.848 244.618 -131.872 244.568 -132.873 244.728C-139.542 245.765 -146.36 245.276 -152.813 243.296C-159.265 241.317 -165.185 237.898 -170.124 233.299C-175.064 228.699 -178.895 223.039 -181.329 216.743C-183.764 210.448 -184.737 203.683 -184.177 196.956C-183.617 190.23 -181.538 183.719 -178.095 177.913C-174.653 172.107 -169.938 167.158 -164.306 163.439C-158.674 159.72 -152.271 157.328 -145.579 156.443C-138.888 155.558 -132.083 156.203 -125.678 158.33C-124.685 158.646 -123.637 158.753 -122.6 158.643C-121.564 158.533 -120.561 158.209 -119.657 157.691C-118.755 157.167 -117.973 156.46 -117.362 155.615C-116.751 154.77 -116.325 153.805 -116.111 152.785C-114.407 144.649 -110.775 137.042 -105.52 130.602C-100.265 124.162 -93.5405 119.077 -85.9121 115.776C-78.2837 112.475 -69.9743 111.054 -61.6824 111.632C-53.3905 112.21 -45.3585 114.77 -38.2617 119.097C-36.6436 120.078 -34.7124 120.405 -32.8616 120.011C-31.0108 119.618 -29.3798 118.533 -28.301 116.978C-19.5135 104.279 -7.30615 94.3298 6.90556 88.2857C21.1173 82.2415 36.7512 80.3496 51.9944 82.8293C67.2376 85.3091 81.4657 92.0588 93.0288 102.296C104.592 112.533 113.016 125.838 117.325 140.668C117.651 141.783 118.234 142.807 119.026 143.656C119.819 144.505 120.799 145.157 121.889 145.558C122.979 145.96 124.148 146.101 125.302 145.97C126.456 145.838 127.563 145.438 128.535 144.801C136.783 139.374 146.129 135.84 155.904 134.452C165.68 133.064 175.641 133.857 185.073 136.774C194.506 139.691 203.175 144.659 210.461 151.322C217.746 157.986 223.466 166.179 227.211 175.315C230.955 184.45 232.631 194.302 232.119 204.161C231.606 214.021 228.917 223.645 224.246 232.343C219.574 241.041 213.035 248.597 205.098 254.469C197.161 260.341 188.022 264.384 178.338 266.307L178.346 266.299Z" fill="#FDFFFD"/>
</svg>
