<svg width="29" height="29" viewBox="0 0 29 29" fill="none" xmlns="http://www.w3.org/2000/svg">
<g clip-path="url(#clip0_106_443)">
<path d="M6.79687 14.5C6.79687 13.0632 7.19274 11.7173 7.88047 10.5648V5.67627H2.99193C1.0517 8.1961 0 11.2671 0 14.5C0 17.733 1.0517 20.804 2.99193 23.3238H7.88047V18.4352C7.19274 17.2828 6.79687 15.9368 6.79687 14.5Z" fill="#FBBD00"/>
<path d="M14.5 22.2031L11.1016 25.6016L14.5 29C17.733 29 20.8039 27.9483 23.3238 26.0081V21.1248H18.4404C17.2779 21.815 15.9263 22.2031 14.5 22.2031Z" fill="#0F9D58"/>
<path d="M7.88024 18.4353L2.9917 23.3238C3.37584 23.8227 3.79413 24.3005 4.24674 24.7532C6.98543 27.4918 10.6267 29.0001 14.4998 29.0001V22.2032C11.689 22.2032 9.22557 20.6898 7.88024 18.4353Z" fill="#0F9D58"/>
<path d="M29 14.5C29 13.6178 28.9201 12.734 28.7626 11.8731L28.6351 11.1765H14.5V17.9734H21.3791C20.7111 19.3022 19.684 20.3864 18.4404 21.1248L23.3237 26.0081C23.8226 25.624 24.3004 25.2057 24.753 24.753C27.4917 22.0143 29 18.373 29 14.5Z" fill="#3C79E6"/>
<path d="M19.947 9.05304L20.5477 9.65377L25.3538 4.8477L24.7531 4.24697C22.0144 1.50828 18.3731 0 14.5 0L11.1016 3.39844L14.5 6.79688C16.5575 6.79688 18.492 7.59811 19.947 9.05304Z" fill="#CF2D48"/>
<path d="M14.4998 6.79687V0C10.6267 0 6.98549 1.50828 4.24674 4.24691C3.79413 4.69953 3.37584 5.17729 2.9917 5.67624L7.88024 10.5648C9.22562 8.31031 11.6891 6.79687 14.4998 6.79687Z" fill="#EB4132"/>
</g>
<defs>
<clipPath id="clip0_106_443">
<rect width="29" height="29" fill="white"/>
</clipPath>
</defs>
</svg>
