<svg width="60" height="60" viewBox="0 0 60 60" fill="none" xmlns="http://www.w3.org/2000/svg">
<path d="M44.313 32.6394C43.6953 32.3281 42.9507 32.5734 42.6357 33.1838C42.6259 33.2021 41.6761 35.0002 39.999 35.0002C38.3217 35.0002 37.372 33.2021 37.3672 33.1911C37.0571 32.5722 36.3076 32.3244 35.6899 32.632C35.0722 32.9408 34.8232 33.6916 35.1308 34.3093C35.1968 34.4399 36.7641 37.5001 39.999 37.5001C43.2338 37.5001 44.8011 34.4398 44.8671 34.3093C45.1747 33.694 44.9257 32.9506 44.313 32.6394Z" fill="#47A542"/>
<path d="M24.3134 32.6394C23.6957 32.3281 22.9511 32.5734 22.6361 33.1838C22.6264 33.2021 21.6766 35.0002 19.9994 35.0002C18.3223 35.0002 17.3725 33.2021 17.3677 33.1911C17.0576 32.5722 16.3105 32.3244 15.6904 32.632C15.0727 32.9408 14.8237 33.6916 15.1313 34.3093C15.1973 34.4399 16.7646 37.5001 19.9994 37.5001C23.2343 37.5001 24.8016 34.4398 24.8676 34.3093C25.1752 33.694 24.9262 32.9506 24.3134 32.6394Z" fill="#47A542"/>
<path d="M29.9995 45C28.6201 45 27.4995 46.1218 27.4995 47.4999C27.4995 48.8781 28.6202 49.9999 29.9995 49.9999C31.3789 49.9999 32.4994 48.8781 32.4994 47.4999C32.4994 46.1218 31.3789 45 29.9995 45Z" fill="#47A542"/>
<path d="M56.2491 5.00055H56.7275L55.1309 8.19142C54.938 8.57837 54.9575 9.03856 55.1845 9.40723C55.414 9.7759 55.8169 10.0005 56.2489 10.0005H58.7489C59.4398 10.0005 59.9989 9.44145 59.9989 8.75052C59.9989 8.05959 59.4398 7.50049 58.7489 7.50049H58.2704L59.8671 4.30961C60.06 3.92266 60.0404 3.46247 59.8134 3.0938C59.5839 2.72513 59.1811 2.50049 58.749 2.50049H56.2491C55.5581 2.50049 54.999 3.05959 54.999 3.75052C54.999 4.44145 55.5581 5.00055 56.2491 5.00055Z" fill="#47A542"/>
<path d="M49.9991 11.2503H50.1627L48.959 13.057C48.7026 13.4403 48.6783 13.9334 48.898 14.3399C49.1153 14.7464 49.5376 15.0003 49.9991 15.0003H52.499C53.19 15.0003 53.749 14.4412 53.749 13.7502C53.749 13.0593 53.19 12.5002 52.499 12.5002H52.3354L53.5391 10.6935C53.7955 10.3102 53.8198 9.81711 53.6001 9.41059C53.3828 9.00407 52.9605 8.75024 52.499 8.75024H49.9991C49.3081 8.75024 48.749 9.30934 48.749 10.0003C48.749 10.6912 49.3081 11.2503 49.9991 11.2503Z" fill="#47A542"/>
<path d="M55.7034 30.0491C54.1305 22.5536 49.1747 16.4367 42.4992 13.0051V1.25048C42.4992 0.815951 42.2746 0.413064 41.9047 0.186073C41.5361 -0.0397454 41.0734 -0.0604874 40.6865 0.134745L33.3649 3.82729C32.4748 3.01109 31.2996 2.50039 29.9993 2.50039C28.699 2.50039 27.5237 3.01109 26.6337 3.82729L19.3121 0.134745C18.9251 -0.0617765 18.4613 -0.0422063 18.0938 0.186073C17.724 0.413181 17.4993 0.815951 17.4993 1.25048V13.0051C10.8238 16.4367 5.8681 22.5535 4.2951 30.0491C1.87086 30.3934 -0.000488281 32.4819 -0.000488281 35.0002C-0.000488281 37.5186 1.87086 39.6072 4.2951 39.9513C6.74629 51.631 17.3871 60 29.9993 60C42.6115 60 53.2523 51.6309 55.7034 39.9513C58.1278 39.6071 59.999 37.5186 59.999 35.0002C59.999 32.4819 58.1277 30.3933 55.7034 30.0491ZM34.7254 5.94017L39.9993 3.28038V11.7203L34.7254 9.0605C34.889 8.56655 34.9993 8.04836 34.9993 7.50027C34.9993 6.95231 34.8889 6.43411 34.7254 5.94017ZM29.9993 5.00045C31.3774 5.00045 32.4992 6.12228 32.4992 7.50039C32.4992 8.8785 31.3774 10.0003 29.9993 10.0003C28.6212 10.0003 27.4993 8.8785 27.4993 7.50039C27.4993 6.12228 28.6212 5.00045 29.9993 5.00045ZM19.9994 3.2805L25.2733 5.94029C25.1097 6.43423 24.9994 6.95243 24.9994 7.50051C24.9994 8.04859 25.1097 8.56679 25.2733 9.06073L19.9994 11.7205V3.2805ZM55.0222 37.5014L54.772 37.471C54.1165 37.3977 53.5367 37.8677 53.4305 38.511C51.6055 49.5144 41.7509 57.5002 29.9993 57.5002C18.2477 57.5002 8.393 49.5142 6.56805 38.5109C6.46798 37.9054 5.74411 37.4952 5.11787 37.4952C5.07756 37.4952 5.03853 37.4964 4.99951 37.5002C3.6214 37.5002 2.49957 36.3783 2.49957 35.0002C2.49957 33.6221 3.6214 32.5003 4.97631 32.499L5.2265 32.5295C5.85392 32.582 6.46188 32.1328 6.56805 31.4894C8.13144 22.0628 15.5953 14.8683 25.0895 12.9952C24.66 13.6537 24.2959 14.3533 24.0618 15.104C23.5051 16.8911 23.6907 18.7564 24.583 20.3579C25.4754 21.9595 26.9646 23.0983 28.7785 23.5647C29.2644 23.6892 29.7539 23.749 30.2385 23.749C32.8276 23.749 35.2726 22.0523 36.0685 19.4998C36.4615 18.2376 36.3297 16.9181 35.6986 15.7852C35.0663 14.6512 34.0129 13.8456 32.7323 13.5159C32.0634 13.3451 31.3835 13.7467 31.21 14.4156C31.0379 15.0845 31.4408 15.7657 32.1097 15.9378C32.7213 16.094 33.2193 16.4725 33.5148 17.0022C33.8102 17.5307 33.8688 18.1534 33.6808 18.7551C33.1278 20.5373 31.2028 21.6079 29.401 21.1428C28.2573 20.8486 27.3221 20.1381 26.7655 19.1409C26.21 18.1436 26.0978 16.9741 26.4493 15.8486C26.8607 14.5267 27.7348 13.3609 28.9114 12.5638C28.9188 12.5587 28.9221 12.5507 28.9292 12.5456C29.286 12.5306 29.6386 12.5003 29.999 12.5003C41.7506 12.5003 51.6053 20.4861 53.4303 31.4894C53.5364 32.1328 54.1138 32.5783 54.7718 32.5295L54.9989 32.5002C56.377 32.5002 57.4989 33.622 57.4989 35.0001C57.4991 36.3783 56.3773 37.5002 55.0222 37.5014Z" fill="#47A542"/>
</svg>
