<svg width="60" height="53" viewBox="0 0 60 53" fill="none" xmlns="http://www.w3.org/2000/svg">
<path d="M59.7624 34.9012C59.5374 33.6833 58.9335 31.4582 57.4116 30.2418C56.0802 29.1784 54.8645 29.0593 53.7259 29.2568V14.2728C53.7259 14.2521 53.724 14.2314 53.7228 14.2111C53.724 14.1904 53.7259 14.1701 53.7259 14.1494V9.561C53.7259 6.53991 51.3431 4.06417 48.3549 3.90685V3.19207C48.3549 2.33911 48.022 1.53768 47.4177 0.934551C46.8142 0.331816 46.0112 0 45.1565 0C43.3933 0 41.9586 1.43189 41.9586 3.19168V3.89826H35.9046V3.19168C35.9046 2.34067 35.5721 1.53924 34.9667 0.93338C34.362 0.331426 33.559 0 32.7055 0C30.9419 0 29.5072 1.43189 29.5072 3.19168V3.89826H23.4536V3.19168C23.4536 2.34067 23.1211 1.53924 22.5152 0.93338C21.9105 0.331426 21.1075 0 20.2541 0C18.4908 0 17.0561 1.43189 17.0561 3.19168V3.90646C14.0679 4.06417 11.6851 6.53991 11.6851 9.56061V14.1494C11.6851 14.1701 11.687 14.1904 11.6882 14.2111C11.687 14.2314 11.6851 14.2517 11.6851 14.2728V36.7684C11.6851 39.1969 13.6646 41.1722 16.0979 41.1722H39.1823C39.8621 44.6527 41.4955 48.0049 43.7363 50.4779C44.2182 51.01 44.9293 51.2571 45.6388 51.1372C46.3519 51.0178 46.9468 50.5497 47.23 49.8849C47.6234 48.9585 47.9395 48.1208 48.1695 47.3943C48.3416 46.8498 48.843 46.484 49.4172 46.484C49.6984 46.484 49.9656 46.571 50.1912 46.7358C50.4169 46.9009 50.5812 47.1289 50.6653 47.3943C50.8988 48.1317 51.2149 48.9699 51.6044 49.8853C51.8868 50.5489 52.481 51.017 53.1944 51.1368C53.3125 51.1567 53.4306 51.1665 53.5476 51.1665C54.1347 51.1665 54.6967 50.9217 55.0984 50.4779C56.9696 48.412 58.3981 45.7989 59.2292 42.9218C60.0205 40.1834 60.2098 37.3352 59.7624 34.9012ZM43.9612 3.19168C43.9612 2.53391 44.4975 1.99871 45.1565 1.99871C45.4761 1.99871 45.7765 2.12245 46.0018 2.3477C46.2279 2.57333 46.3522 2.87314 46.3522 3.19168V6.11596C46.3522 6.77452 45.816 7.31011 45.1565 7.31011C44.4975 7.31011 43.9612 6.77452 43.9612 6.11596V3.19168ZM31.5098 3.19168C31.5098 2.53391 32.046 1.99871 32.7055 1.99871C33.0251 1.99871 33.3255 2.12284 33.5504 2.34653C33.7772 2.57333 33.902 2.87353 33.902 3.19168V6.11596C33.902 6.77452 33.3653 7.31011 32.7055 7.31011C32.046 7.31011 31.5098 6.77452 31.5098 6.11596V3.19168ZM19.0588 3.19168C19.0588 2.53391 19.595 1.99871 20.2541 1.99871C20.5736 1.99871 20.8744 2.12284 21.0993 2.34653C21.3258 2.57333 21.4506 2.87353 21.4506 3.19168V6.11596C21.4506 6.77452 20.9139 7.31011 20.2541 7.31011C19.595 7.31011 19.0588 6.77452 19.0588 6.11596V3.19168ZM13.6877 36.7684V15.2721H16.852C17.4046 15.2721 17.8533 14.8248 17.8533 14.2728C17.8533 13.7208 17.4046 13.2734 16.852 13.2734H13.6877V9.561C13.6877 7.64232 15.1728 6.06365 17.0561 5.90946V6.11596C17.0561 7.87654 18.4908 9.30882 20.2541 9.30882C22.0181 9.30882 23.4532 7.87654 23.4532 6.11596V5.89736H29.5072V6.11596C29.5072 7.87654 30.9419 9.30882 32.7055 9.30882C34.4695 9.30882 35.9046 7.87654 35.9046 6.11596V5.89736H41.9586V6.11596C41.9586 7.87654 43.3933 9.30882 45.1565 9.30882C46.9202 9.30882 48.3549 7.87654 48.3549 6.11596V5.90946C50.2382 6.06365 51.7233 7.64232 51.7233 9.561V13.2734H24.862C24.309 13.2734 23.8607 13.7208 23.8607 14.2728C23.8607 14.8248 24.309 15.2721 24.862 15.2721H51.7233V29.826C50.9974 30.063 50.2441 30.282 49.4172 30.2991C48.4789 30.2796 47.6356 30.0005 46.8197 29.73C45.2438 29.208 43.4571 28.6162 41.4216 30.2418C39.8993 31.4585 39.2961 33.6837 39.072 34.902C38.8287 36.2242 38.772 37.6823 38.9003 39.1735H16.0979C14.7688 39.1735 13.6877 38.0945 13.6877 36.7684ZM53.6129 49.1373C53.6031 49.1487 53.5789 49.1748 53.5269 49.1662C53.4701 49.1565 53.4537 49.1174 53.4478 49.1038C53.0829 48.2465 52.7892 47.4689 52.5748 46.7916C52.3609 46.117 51.9451 45.5401 51.374 45.1231C50.8038 44.7058 50.1271 44.4853 49.4172 44.4853C47.9649 44.4853 46.6961 45.4124 46.2599 46.7924C46.0491 47.4583 45.755 48.2368 45.3869 49.1038C45.3811 49.1166 45.3642 49.1565 45.3071 49.1662C45.2551 49.1748 45.2316 49.1487 45.2215 49.1373C43.0565 46.7479 41.5233 43.4266 41.0156 40.0261C40.7668 38.3564 40.7758 36.7091 41.0418 35.2627C41.3332 33.6794 41.943 32.3857 42.6732 31.8021C43.8083 30.8956 44.6152 31.1056 46.1888 31.6272C47.1075 31.9313 48.1487 32.2764 49.4 32.2978H49.4348C50.6856 32.276 51.7272 31.9313 52.6464 31.6268C52.7716 31.585 52.8956 31.5444 53.0188 31.5046C53.0223 31.5034 53.0258 31.5023 53.0293 31.5011C53.0301 31.5007 53.0313 31.5003 53.0321 31.4999C54.414 31.0549 55.154 30.9983 56.16 31.8021C56.8902 32.3857 57.5004 33.6794 57.7926 35.2627C58.6265 39.7942 56.9074 45.4995 53.6129 49.1373Z" fill="#47A542"/>
<path d="M43.374 17.1768C42.8077 16.5019 41.8854 16.2864 41.0785 16.6413C35.8842 18.9245 31.9329 26.7242 30.5569 29.7648C28.8644 28.856 26.2149 27.6049 24.4896 27.6404C24.4282 27.6419 24.3672 27.6451 24.3077 27.6498C23.0389 27.7505 22.0688 28.7159 21.948 29.9967C21.8263 31.2911 22.6074 32.4322 23.8477 32.7707C26.8294 33.585 29.6381 36.2157 31.0466 37.7116C31.4217 38.1098 31.9278 38.3253 32.4566 38.3253C32.6029 38.3253 32.7512 38.3089 32.8986 38.2749C33.578 38.1195 34.1084 37.6308 34.3177 36.9668C36.3418 30.5366 41.4129 22.6296 43.4992 19.5288C43.9912 18.7977 43.9408 17.8526 43.374 17.1768ZM32.4379 36.2703C30.8628 34.6101 27.7818 31.7725 24.3762 30.843C23.9271 30.72 23.9303 30.3074 23.942 30.1833C23.9565 30.0322 24.0359 29.6762 24.4673 29.6418C24.49 29.6403 24.5127 29.6391 24.5338 29.6387C24.5463 29.6383 24.5592 29.6383 24.5721 29.6383C25.5918 29.6383 27.6844 30.4507 30.0547 31.769C30.4262 31.9755 30.8702 32.0161 31.2727 31.8806C31.6755 31.7448 32.0041 31.4442 32.1742 31.0546C32.9182 29.351 36.8511 20.8046 41.761 18.5267C39.1091 22.4789 34.462 29.9143 32.4379 36.2703Z" fill="#47A542"/>
<path d="M20.8589 13.2734H20.8566C20.3039 13.2734 19.8564 13.7212 19.8564 14.2728C19.8564 14.8248 20.3063 15.2721 20.8593 15.2721C21.4124 15.2721 21.8606 14.8248 21.8606 14.2728C21.8606 13.7212 21.412 13.2734 20.8589 13.2734Z" fill="#47A542"/>
<path d="M54.208 33.4784C53.6921 33.6763 53.4344 34.2549 53.6331 34.7698C53.6448 34.801 54.8135 37.9025 53.6378 40.8354C53.4324 41.3479 53.6823 41.9296 54.1955 42.1345C54.3176 42.1833 54.4435 42.2064 54.5671 42.2064C54.9645 42.2064 55.3408 41.9686 55.4972 41.5779C56.9612 37.9247 55.5621 34.2088 55.5019 34.0523C55.3036 33.5374 54.7243 33.2805 54.208 33.4784Z" fill="#47A542"/>
<path d="M26.3359 35.5686C24.9521 33.768 23.0946 32.3554 21.0078 31.4957C22.4735 29.8741 23.4675 27.8688 23.9721 25.5133C26.2944 24.1052 27.0564 21.1515 27.2799 18.8604C27.3933 17.6915 27.4691 16.1586 27.0406 14.6717C26.5779 13.0685 25.5725 11.7801 24.282 11.1356C23.0771 10.5348 21.6642 10.567 20.5207 11.1692C20.1762 10.6386 19.8177 10.0909 19.0447 9.59487C17.979 8.91172 16.6909 8.42087 15.3191 8.17476C12.6503 7.69419 9.88306 8.21555 7.72667 9.60584C7.41783 9.80499 7.12338 10.0182 6.83888 10.2239C6.31067 10.6061 5.81193 10.967 5.27652 11.2049C4.64581 11.4856 3.78408 11.5847 3.28089 11.1737C3.03203 10.9701 2.69132 10.9193 2.39345 11.041C2.09557 11.1631 1.88854 11.438 1.85358 11.7578C1.54097 14.6127 2.65978 17.6285 4.78704 19.742C4.55909 21.5261 4.18444 27.2751 7.98615 31.4961C5.89934 32.3554 4.04185 33.768 2.65772 35.5689C0.918489 37.8319 -0.000488281 40.5398 -0.000488281 43.4006V50.2427C-0.000488281 51.7232 1.20436 52.9277 2.68549 52.9277H26.3091C27.7896 52.9277 28.9941 51.7232 28.9941 50.2427V43.4006C28.9941 40.5398 28.0751 37.8316 26.3359 35.5686Z" fill="#F4F0E9"/>
<path d="M26.3359 35.5686C24.9521 33.768 23.0946 32.3554 21.0078 31.4957C22.4735 29.8741 23.4675 27.8688 23.9721 25.5133C26.2944 24.1052 27.0564 21.1515 27.2799 18.8604V18.86C27.3933 17.6912 27.4691 16.1586 27.0406 14.6717C26.5779 13.0685 25.5725 11.7801 24.282 11.1356C23.0771 10.5348 21.6642 10.567 20.5207 11.1692C20.1762 10.6386 19.8177 10.0909 19.0447 9.59487C17.979 8.91172 16.6909 8.42087 15.3191 8.17476C12.6503 7.69419 9.88306 8.21555 7.72667 9.60584C7.41783 9.80499 7.12338 10.0182 6.83888 10.2239C6.31067 10.6061 5.81193 10.967 5.27652 11.2049C4.64581 11.4856 3.78408 11.5847 3.28089 11.1737C3.03203 10.9701 2.69132 10.9193 2.39345 11.041C2.09557 11.1631 1.88854 11.438 1.85358 11.7578C1.54097 14.6127 2.65978 17.6285 4.78704 19.742C4.55909 21.5261 4.18444 27.2751 7.98615 31.4961C5.89934 32.3554 4.04185 33.768 2.65772 35.5689C0.918489 37.8319 -0.000488281 40.5398 -0.000488281 43.4006V50.2427C-0.000488281 51.7232 1.20436 52.9277 2.68549 52.9277H26.3091C27.7896 52.9277 28.9941 51.7232 28.9941 50.2427V43.4006C28.9941 40.5398 28.0751 37.8316 26.3359 35.5686ZM19.4067 39.2647L20.1992 40.6005C20.2208 40.6372 20.2173 40.6838 20.1903 40.7163L16.6319 45.0188L17.0319 43.7184C17.0323 43.7173 17.0323 43.716 17.0326 43.7149L19.9301 34.2893L21.5415 37.5196L19.925 37.9718C19.6621 38.0454 19.4485 38.2371 19.347 38.4904C19.2456 38.7437 19.2675 39.0299 19.4067 39.2647ZM9.64723 38.4904C9.54577 38.2371 9.33188 38.0454 9.06931 37.9718L7.45279 37.5196L9.06417 34.2897L12.3617 45.0182L8.804 40.7163C8.77727 40.6834 8.7735 40.6372 8.79509 40.6005L9.58759 39.2647C9.72675 39.0299 9.74869 38.7437 9.64723 38.4904ZM10.7695 33.7793C10.7976 33.7961 10.8264 33.8125 10.8545 33.8293C10.896 33.854 10.9374 33.8787 10.9796 33.903C11.032 33.9335 11.0852 33.9634 11.1383 33.9932C11.163 34.0069 11.1877 34.0213 11.2127 34.035C11.2315 34.0456 11.2504 34.0556 11.2696 34.0658C11.3213 34.0943 11.3738 34.1224 11.4266 34.1505C11.4653 34.1711 11.5047 34.1916 11.5441 34.2119C11.5969 34.2393 11.6497 34.2667 11.7032 34.2934C11.7183 34.3013 11.7337 34.3089 11.7488 34.3164C11.7745 34.3294 11.8005 34.3414 11.8262 34.3541C11.89 34.3853 11.9538 34.4168 12.0185 34.4473C12.0326 34.4539 12.047 34.4604 12.0614 34.4669C12.1049 34.4875 12.1488 34.5077 12.1927 34.5276C12.2167 34.5385 12.24 34.5498 12.264 34.5605C12.3637 34.6054 12.4641 34.6492 12.5656 34.6921L12.2684 38.7396L10.7376 33.7604C10.74 33.7618 10.7424 33.7632 10.7448 33.7645C10.753 33.7697 10.7612 33.7745 10.7695 33.7793ZM16.429 34.6921C16.4832 34.6691 16.537 34.6455 16.5908 34.6218C16.6354 34.6023 16.6799 34.5831 16.7241 34.5632C16.7536 34.5498 16.7824 34.5361 16.8115 34.5228C16.8702 34.496 16.9291 34.4693 16.9874 34.4415C17.0316 34.4206 17.0751 34.399 17.119 34.3778C17.1619 34.3569 17.2051 34.3366 17.2472 34.3154C17.2644 34.3068 17.2815 34.2979 17.2983 34.2893C17.3398 34.2688 17.3806 34.2472 17.4217 34.2263C17.4758 34.1982 17.5297 34.17 17.5831 34.1416C17.6273 34.1183 17.6712 34.0946 17.7148 34.071C17.7367 34.059 17.7593 34.0473 17.7809 34.0353C17.8124 34.0179 17.8433 33.9997 17.8745 33.9822C17.917 33.9582 17.9598 33.9342 18.002 33.9099C18.0572 33.878 18.1113 33.8458 18.1658 33.8132C18.1768 33.8067 18.1878 33.8005 18.1984 33.794C18.2176 33.7827 18.2368 33.7717 18.256 33.7601C18.2563 33.7601 18.2563 33.7601 18.2567 33.7597L16.7262 38.7385L16.429 34.6921ZM14.7059 35.1908L15.3057 43.3595L14.4971 45.9903L14.1112 44.7343L13.6889 43.3605L14.2887 35.1908C14.2963 35.1912 14.3042 35.1912 14.3117 35.1915C14.3724 35.1946 14.433 35.197 14.4941 35.197H14.4989C14.5605 35.197 14.6219 35.1949 14.6833 35.1915C14.6908 35.1912 14.6983 35.1915 14.7059 35.1908ZM3.56916 13.1573C4.41718 13.3006 5.30051 13.1152 5.98949 12.8087C6.69217 12.4965 7.28963 12.0642 7.86789 11.646C8.14588 11.4445 8.40879 11.2546 8.67786 11.0808C10.4647 9.92907 12.772 9.49923 15.0089 9.90199C16.1562 10.108 17.2242 10.5125 18.0973 11.0719C18.5566 11.367 18.766 11.6892 19.0557 12.1359C19.2106 12.3744 19.3858 12.6449 19.6158 12.9328C19.7669 13.122 19.9901 13.2406 20.2317 13.2598C20.4734 13.2787 20.7123 13.1978 20.8916 13.0346C21.5836 12.4056 22.6315 12.274 23.4984 12.7062C24.3509 13.1316 25.0272 14.0256 25.3542 15.1581C25.7 16.3588 25.6315 17.6764 25.5331 18.69C25.3956 20.0971 24.9497 22.4479 23.5073 23.688C23.4542 23.5331 23.3983 23.3795 23.34 23.2266C23.3345 23.2122 23.3284 23.1979 23.3229 23.1838C23.268 23.0412 23.2115 22.8993 23.1522 22.7581C23.1302 22.7063 23.1069 22.6556 23.085 22.6042C23.0404 22.501 22.9959 22.3978 22.9489 22.2957C22.9212 22.2353 22.892 22.176 22.8636 22.1161C22.8197 22.0239 22.7762 21.9313 22.7306 21.8398C22.6987 21.7764 22.6658 21.7136 22.6332 21.6506C22.5883 21.5638 22.5434 21.4768 22.4971 21.3911C22.4622 21.3266 22.4262 21.2629 22.3905 21.1988C22.3439 21.1155 22.297 21.0322 22.249 20.9496C22.2113 20.8852 22.1729 20.8214 22.1341 20.7573C22.0858 20.6764 22.0364 20.5962 21.9864 20.5163C21.9463 20.4526 21.9055 20.3892 21.8647 20.3257C21.8136 20.2473 21.7622 20.1691 21.7098 20.0916C21.6676 20.0289 21.6248 19.9662 21.5816 19.9041C21.5281 19.8274 21.474 19.7513 21.4195 19.6755C21.3749 19.6145 21.3307 19.5531 21.2854 19.4925C21.2292 19.4174 21.1723 19.3427 21.1147 19.2683C21.0688 19.2093 21.0232 19.15 20.9762 19.0914C20.9173 19.017 20.8566 18.944 20.7963 18.8707C20.7493 18.8141 20.7024 18.7572 20.6547 18.701C20.5917 18.6273 20.5272 18.5546 20.4628 18.482C20.4155 18.4285 20.3685 18.3747 20.3205 18.3222C20.252 18.2472 20.182 18.1735 20.1118 18.0998C20.0662 18.0514 20.0209 18.0024 19.9747 17.9548C19.9215 17.9003 19.867 17.8472 19.8129 17.7937C20.1035 17.3128 20.4436 16.6118 20.5906 15.7867C20.6756 15.3096 20.3579 14.8537 19.8807 14.7687C19.4043 14.6833 18.9477 15.0014 18.8627 15.4786C18.6762 16.5244 18.0147 17.3179 17.9969 17.3392C17.9917 17.345 17.9876 17.3515 17.9828 17.3573C17.9705 17.3724 17.9578 17.3871 17.9465 17.4029C16.7022 19.1552 14.6428 20.2963 12.4888 20.6075C11.1962 20.794 9.86935 20.6819 8.66415 20.2236C8.55755 20.1832 8.45197 20.14 8.34709 20.0944C7.61424 19.7742 6.93006 19.3296 6.30895 18.7689C4.68489 17.3032 3.69187 15.2332 3.56916 13.1573ZM6.42824 21.0562C6.44983 21.0699 6.47143 21.0826 6.49302 21.096C6.50982 21.1066 6.52696 21.1172 6.5441 21.1275C6.65001 21.1923 6.75696 21.255 6.86527 21.3153C6.88173 21.3246 6.89818 21.3335 6.91463 21.3424C7.02466 21.4027 7.13572 21.4614 7.24781 21.5169C7.26186 21.5237 7.27592 21.5306 7.28997 21.5375C7.40549 21.594 7.52203 21.6485 7.63994 21.6999C7.64886 21.704 7.65777 21.7075 7.66702 21.7116C7.79042 21.7651 7.91485 21.8161 8.04065 21.8638C9.09742 22.2655 10.2152 22.4571 11.3347 22.4571C14.1088 22.4571 16.889 21.28 18.7468 19.2083C20.3723 20.8841 21.5665 22.9997 22.1468 25.2535C22.154 25.2823 22.1633 25.3104 22.1736 25.3378C22.1766 25.347 22.1808 25.356 22.1845 25.3649C22.1897 25.3779 22.1945 25.3909 22.2003 25.4036C21.6412 27.7866 20.5029 29.7335 18.8106 31.1972C18.8106 31.1972 18.8106 31.1975 18.8103 31.1975C18.8044 31.2023 18.7986 31.2071 18.7928 31.2122C18.6711 31.3168 18.5467 31.4196 18.4188 31.5194C18.4181 31.5201 18.4174 31.5204 18.4168 31.5211C18.2872 31.6222 18.1545 31.7209 18.0188 31.8172C18.0154 31.8196 18.0123 31.822 18.0089 31.8244C17.8752 31.9191 17.7388 32.0109 17.5992 32.1007C17.5934 32.1045 17.5876 32.1086 17.5814 32.1124C17.4436 32.2008 17.3031 32.2865 17.1595 32.3698C17.1516 32.3743 17.1437 32.3791 17.1358 32.3839C16.9936 32.4661 16.8482 32.546 16.7005 32.6238C16.6909 32.6286 16.6816 32.6337 16.6724 32.6385C16.525 32.7157 16.3745 32.79 16.2216 32.862C16.2117 32.8668 16.2018 32.8716 16.1918 32.8761C16.0389 32.9481 15.883 33.0173 15.725 33.0841C15.7147 33.0886 15.7044 33.0927 15.6941 33.0972C15.5357 33.1637 15.3743 33.2278 15.2108 33.2895C15.1655 33.3066 15.1206 33.3237 15.0751 33.3405C14.9767 33.3762 14.8752 33.4022 14.7731 33.419C14.4879 33.466 14.1928 33.4399 13.9161 33.3395C13.876 33.3251 13.8366 33.3097 13.7968 33.2949C13.7965 33.2946 13.7962 33.2943 13.7958 33.2943C13.6237 33.2298 13.4541 33.1623 13.2875 33.0924C13.2834 33.0907 13.2793 33.0886 13.2751 33.0869C13.112 33.018 12.9512 32.9463 12.7932 32.8723C12.787 32.8692 12.7809 32.8661 12.7747 32.8634C12.6184 32.7897 12.4648 32.7136 12.3137 32.6348C12.3072 32.6313 12.3003 32.6276 12.2938 32.6241C12.1437 32.5453 11.9959 32.4641 11.8513 32.3801C11.8448 32.3763 11.8386 32.3725 11.8321 32.3688C11.6874 32.2848 11.5455 32.1981 11.4063 32.1089C11.4009 32.1052 11.3954 32.1017 11.3899 32.098C11.2504 32.0082 11.1136 31.916 10.9796 31.8214C10.9755 31.8183 10.9714 31.8152 10.9669 31.8121C10.8322 31.7165 10.7006 31.6184 10.572 31.5177C10.5693 31.5156 10.5669 31.5135 10.5641 31.5115C10.4346 31.4097 10.3078 31.3055 10.1844 31.1989C10.184 31.1985 10.1833 31.1982 10.183 31.1979C6.58386 28.0824 6.29764 23.4488 6.42824 21.0562ZM27.2391 50.2427C27.2391 50.7558 26.8219 51.173 26.3091 51.173H23.7178V45.2485C23.7178 44.7638 23.3249 44.371 22.8403 44.371C22.3556 44.371 21.9628 44.7638 21.9628 45.2485V51.173H7.03152V45.2485C7.03152 44.7638 6.6387 44.371 6.15402 44.371C5.66934 44.371 5.27652 44.7638 5.27652 45.2485V51.173H2.68549C2.17236 51.173 1.75451 50.7558 1.75451 50.2427V43.4009C1.75451 39.3562 3.97123 35.6834 7.37669 33.7409L5.74475 37.012C5.54422 37.4137 5.5336 37.8795 5.71561 38.2902C5.89797 38.7008 6.25034 39.0056 6.68292 39.1266L7.49426 39.3538L7.28552 39.7055C6.88721 40.3773 6.95405 41.2329 7.45176 41.8348L13.8174 49.5321C13.8202 49.5356 13.8226 49.539 13.8253 49.5424C13.8294 49.5472 13.8339 49.5517 13.8383 49.5565C13.8418 49.5606 13.8459 49.5647 13.8496 49.5688C13.8616 49.5818 13.8736 49.5945 13.8863 49.6069C13.888 49.6082 13.8894 49.61 13.8908 49.6113C13.8945 49.6151 13.8983 49.6182 13.9021 49.622C13.9158 49.6343 13.9298 49.6463 13.9439 49.6579C13.9487 49.6617 13.9535 49.6658 13.9583 49.6696C13.9586 49.6696 13.959 49.6699 13.959 49.6699C13.961 49.6717 13.9634 49.6737 13.9655 49.6754C13.9785 49.6854 13.9922 49.6946 14.0059 49.7039C14.0101 49.7066 14.0142 49.7097 14.0183 49.7124C14.0262 49.7176 14.0337 49.7224 14.0416 49.7272C14.044 49.7286 14.046 49.7296 14.0481 49.731C14.0577 49.7364 14.0673 49.7419 14.0769 49.7474C14.0783 49.7481 14.0796 49.7488 14.0807 49.7498C14.081 49.7498 14.0814 49.7498 14.0817 49.7501C14.0947 49.757 14.1081 49.7635 14.1215 49.7697C14.1256 49.7717 14.1297 49.7738 14.1338 49.7759C14.1479 49.782 14.1622 49.7882 14.1766 49.794C14.1804 49.7954 14.1838 49.7968 14.1876 49.7981C14.2257 49.8125 14.2647 49.8242 14.3045 49.8331C14.3083 49.8341 14.312 49.8348 14.3158 49.8355C14.3377 49.84 14.3597 49.8437 14.3823 49.8468C14.3871 49.8475 14.3922 49.8482 14.397 49.8489C14.4008 49.8492 14.4042 49.8496 14.4077 49.8499C14.4138 49.8506 14.4193 49.8516 14.4255 49.852C14.4348 49.853 14.4443 49.8526 14.4539 49.8533C14.4683 49.854 14.4824 49.855 14.4971 49.855C14.527 49.855 14.5564 49.853 14.5859 49.8499C14.5897 49.8496 14.5935 49.8492 14.5976 49.8489C14.6031 49.8482 14.6082 49.8472 14.6137 49.8465C14.6346 49.8437 14.6555 49.84 14.6761 49.8358C14.6812 49.8348 14.6867 49.8338 14.6918 49.8324C14.697 49.8314 14.7025 49.8307 14.7079 49.8293C14.7405 49.8211 14.772 49.8108 14.8032 49.7992C14.8091 49.7968 14.8149 49.7947 14.8207 49.7923C14.8331 49.7875 14.8451 49.7824 14.857 49.7769C14.8639 49.7738 14.8711 49.7704 14.878 49.7669C14.8838 49.7645 14.8893 49.7618 14.8948 49.7591C14.8972 49.758 14.8996 49.757 14.902 49.7556C14.9047 49.7543 14.9071 49.7525 14.9098 49.7512C14.9112 49.7505 14.9126 49.7501 14.9139 49.7495C14.9198 49.7464 14.9249 49.7426 14.9307 49.7392C14.9331 49.7378 14.9355 49.7364 14.9379 49.7351C14.9438 49.7316 14.9499 49.7286 14.9561 49.7248C14.9578 49.7238 14.9599 49.7227 14.9616 49.7217C14.965 49.7196 14.9681 49.7172 14.9715 49.7148C14.9804 49.709 14.9894 49.7028 14.9983 49.6967C15.0072 49.6905 15.0161 49.6843 15.025 49.6778C15.0288 49.6751 15.0322 49.672 15.036 49.6693C15.0435 49.6634 15.0507 49.6573 15.0583 49.6511C15.0593 49.6501 15.0603 49.6494 15.0617 49.6483C15.0651 49.6456 15.0685 49.6429 15.072 49.6401C15.0764 49.6363 15.0802 49.6322 15.0847 49.6281C15.0908 49.6226 15.0977 49.6168 15.1038 49.611C15.1066 49.6082 15.1093 49.6052 15.1121 49.6024L15.1124 49.6021C15.1203 49.5945 15.1278 49.5866 15.1354 49.5784C15.1443 49.5688 15.1532 49.5596 15.1618 49.5496C15.1649 49.5459 15.1679 49.5424 15.171 49.5387C15.1717 49.538 15.1727 49.5369 15.1734 49.5363L21.5429 41.8345C22.0406 41.2326 22.1074 40.377 21.7088 39.7048L21.5004 39.3531L22.3117 39.1262C22.7443 39.0052 23.0967 38.7001 23.2787 38.2898C23.4607 37.8792 23.4504 37.4134 23.2499 37.0116L21.6176 33.7402C25.0227 35.6837 27.2394 39.3562 27.2394 43.4006V50.2427H27.2391Z" fill="#47A542"/>
<path d="M11.9832 29.8319C11.8183 30.2878 12.0545 30.7906 12.51 30.9555L12.9382 31.1104C13.4407 31.2921 13.9689 31.383 14.4968 31.383C15.0239 31.383 15.5508 31.2925 16.0526 31.1115L16.4842 30.9559C16.9401 30.7913 17.1762 30.2885 17.0117 29.8326C16.8475 29.3767 16.3447 29.1402 15.8888 29.3051L15.4569 29.4607C14.8371 29.6842 14.1543 29.6838 13.5346 29.46L13.1068 29.3051C12.6513 29.1405 12.1481 29.3764 11.9832 29.8319Z" fill="#47A542"/>
<path d="M9.26914 14.26C9.45081 14.26 9.63419 14.2041 9.79118 14.0879C9.81038 14.0738 11.7683 12.652 14.0937 13.0239C14.5715 13.1004 15.0223 12.7744 15.0987 12.2959C15.1751 11.8174 14.8492 11.3673 14.3706 11.2909C11.296 10.7993 8.8441 12.6047 8.74127 12.6818C8.35427 12.9718 8.27612 13.5189 8.5644 13.9069C8.73647 14.1379 9.00109 14.26 9.26914 14.26Z" fill="#47A542"/>
<path d="M6.30009 15.4855C6.34739 15.5173 6.39846 15.5444 6.45194 15.5664C6.50438 15.5883 6.55991 15.6058 6.61578 15.6171C6.672 15.6287 6.72993 15.6339 6.78717 15.6339C6.84407 15.6339 6.902 15.6287 6.9589 15.6171C7.01443 15.6058 7.06962 15.5883 7.12309 15.5664C7.17588 15.5444 7.22661 15.5173 7.27391 15.4855C7.32224 15.4539 7.36714 15.4172 7.40759 15.3768C7.44769 15.3364 7.48471 15.2918 7.51728 15.2435C7.54881 15.1962 7.57589 15.1451 7.59783 15.0923C7.61977 15.0388 7.63656 14.9836 7.64787 14.9274C7.65919 14.8712 7.66467 14.8133 7.66467 14.7564C7.66467 14.6995 7.65919 14.6416 7.64787 14.5853C7.63656 14.5291 7.61977 14.4739 7.59783 14.4211C7.57589 14.3677 7.54881 14.3166 7.51728 14.2693C7.48471 14.221 7.44769 14.1764 7.40759 14.136C7.36714 14.0955 7.32224 14.0588 7.27391 14.0273C7.22661 13.9954 7.17588 13.9683 7.12309 13.9464C7.06962 13.9245 7.01443 13.907 6.9589 13.8964C6.84578 13.8737 6.72924 13.8737 6.61578 13.8964C6.55991 13.907 6.50438 13.9245 6.45194 13.9464C6.39846 13.9683 6.34739 13.9954 6.30009 14.0273C6.25176 14.0588 6.20685 14.0955 6.16675 14.136C6.00325 14.2991 5.90967 14.5257 5.90967 14.7564C5.90967 14.9871 6.00325 15.2136 6.16675 15.3768C6.20685 15.4169 6.25176 15.4539 6.30009 15.4855Z" fill="#47A542"/>
<path d="M10.2601 24.9046C10.6067 24.752 11.0043 24.7517 11.3508 24.9046C11.7944 25.1003 12.3123 24.8991 12.5077 24.4559C12.7034 24.0123 12.5022 23.4944 12.059 23.2987C11.2621 22.9473 10.3486 22.9477 9.55195 23.2987C9.1084 23.4944 8.90754 24.0123 9.10326 24.4559C9.24791 24.7839 9.56943 24.9793 9.90638 24.9793C10.0246 24.9796 10.145 24.9553 10.2601 24.9046Z" fill="#47A542"/>
<path d="M17.6437 24.9048C17.9906 24.7519 18.3879 24.7519 18.7344 24.9048C18.8499 24.9555 18.9699 24.9795 19.0882 24.9795C19.4254 24.9795 19.7466 24.7841 19.8916 24.4558C20.0873 24.0126 19.8861 23.4946 19.4429 23.2989C18.6463 22.9476 17.7325 22.9476 16.9359 23.2989C16.4923 23.4946 16.2915 24.0126 16.4868 24.4558C16.6826 24.8993 17.2005 25.1002 17.6437 24.9048Z" fill="#47A542"/>
</svg>
