<svg width="60" height="60" viewBox="0 0 60 60" fill="none" xmlns="http://www.w3.org/2000/svg">
<path d="M48.9852 18.3128C48.9852 16.7509 47.9113 15.4353 46.4634 15.0645V11.4995C46.4634 9.55673 44.8832 7.97607 42.9405 7.97607H38.1207C37.9206 6.29013 36.4832 4.97818 34.7447 4.97818H32.7831C32.8394 4.70398 32.8697 4.42291 32.8697 4.13818C32.8697 1.85623 31.0134 0 28.7319 0C26.45 0 24.5938 1.85623 24.5938 4.13818C24.5938 4.42291 24.624 4.70398 24.6807 4.97818H22.7188C20.9797 4.97818 19.5419 6.29013 19.3418 7.97607H14.5229C12.5807 7.97607 11 9.55673 11 11.4995V56.4775C11 58.4198 12.5802 60 14.5229 60H42.9409C44.8832 60 46.4634 58.4198 46.4634 56.4775V50.1389L47.6852 48.9615C47.6985 48.9487 47.7113 48.9345 47.7245 48.9212C47.758 48.8882 47.7914 48.8553 47.8234 48.821C47.8408 48.8026 47.8573 48.7839 47.8742 48.7651C47.9035 48.7331 47.9324 48.701 47.9603 48.6685C47.9759 48.6507 47.9905 48.6324 48.0052 48.6145C48.0349 48.5783 48.0642 48.5422 48.093 48.5051C48.1045 48.49 48.1164 48.4749 48.1278 48.4593C48.1608 48.4158 48.1928 48.3714 48.224 48.3266C48.2299 48.3174 48.2363 48.3083 48.2427 48.2991C48.5998 47.7759 48.8383 47.1758 48.9353 46.5445C48.9367 46.5376 48.9376 46.5308 48.9385 46.5239C48.9449 46.4795 48.9514 46.4351 48.9568 46.3907C48.9578 46.3838 48.9573 46.377 48.9582 46.3701C48.9756 46.2144 48.9852 46.0574 48.9852 45.9V18.3128ZM46.6415 45.0838H40.1129C38.9781 45.0838 38.0547 46.0066 38.0547 47.1414V53.2608H19.3231C18.7664 53.2608 18.3137 52.8081 18.3137 52.2519V18.3128C18.3137 17.7567 18.7664 17.3039 19.3231 17.3039H45.6326C46.1892 17.3039 46.6415 17.7567 46.6415 18.3128V45.0838ZM40.399 52.7271V47.4275H45.899L40.399 52.7271ZM28.7319 2.34375C29.7212 2.34375 30.5259 3.1485 30.5259 4.13818C30.5259 4.59137 30.3575 5.0235 30.0508 5.35492C29.7065 5.72708 29.2382 5.93216 28.7319 5.93216C28.6688 5.93216 28.606 5.92896 28.5438 5.92255C28.1103 5.87814 27.7139 5.68085 27.4127 5.35446C27.1064 5.0235 26.9375 4.59137 26.9375 4.13818C26.9375 3.1485 27.7427 2.34375 28.7319 2.34375ZM21.6609 8.37891C21.6609 7.79617 22.1356 7.32193 22.7188 7.32193H26.0893C26.1035 7.33383 26.1186 7.34482 26.1328 7.35672C26.1524 7.37228 26.1721 7.38831 26.1923 7.40341C26.2261 7.42996 26.2605 7.4556 26.2953 7.48077C26.3145 7.49451 26.3333 7.5087 26.3525 7.52243C26.3937 7.55081 26.4349 7.57874 26.477 7.60574C26.4903 7.61444 26.5035 7.6236 26.5173 7.63229C26.5727 7.66754 26.6285 7.70096 26.6853 7.733C26.7013 7.74216 26.7173 7.7504 26.7333 7.75909C26.775 7.78244 26.8171 7.80487 26.8597 7.82639C26.8817 7.83737 26.9036 7.8479 26.9256 7.85843C26.9631 7.87674 27.0007 7.89459 27.0387 7.91153C27.0625 7.92206 27.0863 7.93259 27.1101 7.94266C27.1476 7.95868 27.1861 7.97424 27.2245 7.98935C27.2479 7.9985 27.2712 8.00766 27.2946 8.01636C27.3371 8.03238 27.3802 8.04703 27.4236 8.06122C27.4429 8.06808 27.4621 8.07495 27.4813 8.0809C27.5436 8.10059 27.6058 8.11935 27.669 8.13583C27.6818 8.1395 27.6946 8.14224 27.7075 8.14545C27.7587 8.15826 27.81 8.17108 27.8617 8.18207C27.8842 8.1871 27.907 8.19122 27.9299 8.1958C27.9725 8.20404 28.0151 8.21182 28.0576 8.21915C28.0828 8.22327 28.1075 8.22693 28.1327 8.23059C28.1744 8.237 28.216 8.24249 28.2581 8.24753C28.2829 8.25027 28.3076 8.25302 28.3323 8.25531C28.3772 8.25989 28.4225 8.26309 28.4673 8.2663C28.4889 8.26767 28.5104 8.2695 28.5319 8.27042C28.5983 8.27362 28.6651 8.27545 28.7315 8.27545C28.7983 8.27545 28.8651 8.27362 28.9315 8.27042C28.953 8.2695 28.9745 8.26767 28.9961 8.2663C29.0409 8.26309 29.0862 8.25989 29.1311 8.25531C29.1558 8.25302 29.1805 8.25027 29.2048 8.24753C29.2474 8.24249 29.289 8.237 29.3311 8.23059C29.3559 8.22693 29.3806 8.22327 29.4053 8.21915C29.4483 8.21228 29.4918 8.20404 29.5344 8.19534C29.5568 8.19122 29.5788 8.1871 29.6008 8.18207C29.6548 8.17062 29.7079 8.15781 29.761 8.14407C29.772 8.14133 29.7825 8.13904 29.7935 8.13629C29.8571 8.11935 29.9203 8.10059 29.983 8.0809C30.0004 8.07495 30.0182 8.069 30.0356 8.06305C30.0805 8.04794 30.1254 8.03284 30.1698 8.0159C30.1922 8.00766 30.2142 7.99896 30.2366 7.99026C30.2764 7.9747 30.3158 7.95868 30.3547 7.9422C30.3776 7.93213 30.4005 7.92252 30.4229 7.91245C30.4623 7.89459 30.5012 7.87628 30.5401 7.85751C30.5607 7.84744 30.5818 7.83737 30.6028 7.82684C30.6472 7.80441 30.6912 7.78107 30.7346 7.75681C30.7488 7.74902 30.763 7.7417 30.7768 7.73392C30.8344 7.70142 30.8907 7.66754 30.9466 7.63229C30.9594 7.62405 30.9713 7.61536 30.9841 7.60757C31.0272 7.57965 31.0693 7.55127 31.1114 7.52197C31.1302 7.5087 31.1485 7.49496 31.1672 7.48169C31.2025 7.45605 31.2373 7.42996 31.2716 7.40341C31.2913 7.38831 31.311 7.37274 31.3302 7.35718C31.3448 7.34528 31.36 7.33383 31.3746 7.32193H34.7447C35.3274 7.32193 35.8016 7.79617 35.8016 8.37891V10.9749H21.6609V8.37891ZM44.1197 52.397V56.4771C44.1197 57.1275 43.5909 57.6562 42.9409 57.6562H14.5229C13.8725 57.6562 13.3438 57.1275 13.3438 56.4771V11.4995C13.3438 10.849 13.8725 10.3198 14.5229 10.3198H19.3171V12.1468C19.3171 12.7936 19.8417 13.3186 20.489 13.3186H36.9735C37.6208 13.3186 38.1454 12.7936 38.1454 12.1468V10.3198H42.9409C43.5909 10.3198 44.1197 10.849 44.1197 11.4995V14.9602H19.3231C17.4742 14.9602 15.9699 16.4639 15.9699 18.3128V52.2514C15.9699 54.0999 17.4742 55.6041 19.3231 55.6041H39.0746C40.1797 55.6041 41.2271 55.182 42.0254 54.4148L44.1197 52.397Z" fill="#47A542"/>
<path d="M25.1352 35.1962C25.7606 35.0909 26.2815 34.6798 26.5296 34.0962C26.7745 33.5194 26.9741 32.9893 27.1219 32.521C27.1535 32.4212 27.2455 32.3544 27.3504 32.3544C27.4557 32.3544 27.5477 32.4212 27.5792 32.5205V32.521C27.7271 32.9888 27.9262 33.5189 28.1721 34.0962C28.4197 34.6798 28.9411 35.0909 29.5664 35.1962C29.6699 35.2136 29.7733 35.2223 29.8758 35.2223C30.3913 35.2223 30.8843 35.0062 31.2372 34.6157C33.6359 31.9625 34.8353 27.9388 34.2228 24.6026C34.0717 23.7805 33.6583 22.2721 32.5858 21.4138C31.1049 20.2287 29.7504 20.6777 28.7607 21.0059C28.2847 21.1639 27.8347 21.3131 27.3504 21.3259C26.8665 21.3136 26.4165 21.1639 25.9405 21.0059C24.9512 20.6777 23.5967 20.2282 22.1154 21.4138C21.0428 22.2721 20.6295 23.7805 20.4784 24.6026C19.8659 27.9388 21.0657 31.9625 23.4635 34.6157C23.8869 35.084 24.5118 35.301 25.1352 35.1962ZM22.7837 25.026C22.9654 24.0363 23.3143 23.4564 23.5802 23.2435C24.0279 22.8846 24.2531 22.9153 25.2021 23.2307C25.7715 23.4193 26.4806 23.6546 27.3302 23.6697H27.371C28.221 23.6546 28.9297 23.4193 29.4991 23.2307C30.4485 22.9157 30.6733 22.8851 31.1214 23.2435C31.3869 23.4559 31.7357 24.0363 31.9175 25.026C32.3519 27.3904 31.5801 30.3132 30.02 32.4084C29.9413 32.1978 29.8726 31.9991 29.814 31.8147C29.473 30.7357 28.4833 30.0106 27.3508 30.0106C26.2183 30.0106 25.2286 30.7357 24.8871 31.8147C24.829 31.9996 24.7599 32.1978 24.6816 32.4084C23.1215 30.3132 22.3498 27.3904 22.7837 25.026Z" fill="#47A542"/>
<path d="M43.5256 23.5547H37.9771C37.3302 23.5547 36.8052 24.0793 36.8052 24.7266C36.8052 25.3738 37.3302 25.8984 37.9771 25.8984H43.5256C44.1724 25.8984 44.6975 25.3738 44.6975 24.7266C44.6975 24.0793 44.1724 23.5547 43.5256 23.5547Z" fill="#47A542"/>
<path d="M43.5256 28.8281H37.9771C37.3302 28.8281 36.8052 29.3527 36.8052 30C36.8052 30.6473 37.3302 31.1719 37.9771 31.1719H43.5256C44.1724 31.1719 44.6975 30.6473 44.6975 30C44.6975 29.3527 44.1724 28.8281 43.5256 28.8281Z" fill="#47A542"/>
<path d="M39.0587 39.6294C39.0294 39.5589 38.9933 39.4907 38.9507 39.4275C38.9091 39.363 38.8596 39.3035 38.8056 39.2495C38.7516 39.1955 38.6921 39.1465 38.6275 39.1039C38.5644 39.0609 38.4962 39.0256 38.4247 38.9963C38.3542 38.967 38.2805 38.9437 38.2059 38.9295C38.0544 38.8988 37.8997 38.8988 37.7486 38.9295C37.6736 38.9437 37.5999 38.967 37.5294 38.9963C37.4579 39.0256 37.3902 39.0609 37.327 39.1039C37.2625 39.1465 37.2025 39.1955 37.1485 39.2495C37.0949 39.3035 37.0455 39.363 37.0034 39.4275C36.9599 39.4907 36.9247 39.5589 36.8954 39.6294C36.8661 39.7008 36.8427 39.7745 36.8276 39.8496C36.8125 39.9247 36.8052 40.002 36.8052 40.078C36.8052 40.3861 36.9306 40.6887 37.1485 40.9066C37.2025 40.9606 37.2625 41.0096 37.327 41.0517C37.3902 41.0938 37.4579 41.1304 37.5294 41.1597C37.5999 41.189 37.6736 41.2124 37.7486 41.2266C37.8237 41.2417 37.9011 41.2499 37.9771 41.2499C38.053 41.2499 38.1309 41.2417 38.2059 41.2266C38.2805 41.2124 38.3547 41.189 38.4247 41.1597C38.4962 41.1304 38.5644 41.0938 38.6275 41.0517C38.6921 41.0096 38.7516 40.9606 38.8056 40.9066C39.0235 40.6887 39.1489 40.3861 39.1489 40.078C39.1489 40.002 39.1407 39.9242 39.1256 39.8496C39.1114 39.7745 39.088 39.7008 39.0587 39.6294Z" fill="#47A542"/>
<path d="M33.2896 38.9062H22.2739C21.6271 38.9062 21.1021 39.4308 21.1021 40.0781C21.1021 40.7254 21.6271 41.25 22.2739 41.25H33.2896C33.9368 41.25 34.4614 40.7254 34.4614 40.0781C34.4614 39.4308 33.9368 38.9062 33.2896 38.9062Z" fill="#47A542"/>
<path d="M33.7583 44.9346H22.2739C21.6271 44.9346 21.1021 45.4592 21.1021 46.1064C21.1021 46.7537 21.6271 47.2783 22.2739 47.2783H33.7583C34.4056 47.2783 34.9302 46.7537 34.9302 46.1064C34.9302 45.4592 34.4056 44.9346 33.7583 44.9346Z" fill="#47A542"/>
</svg>
