<svg width="60" height="60" viewBox="0 0 60 60" fill="none" xmlns="http://www.w3.org/2000/svg">
<g clip-path="url(#clip0_123_2723)">
<path d="M51.7067 9.89428C46.3591 4.53622 39.2491 1.58521 31.6868 1.58521C24.1241 1.58521 17.0136 4.53576 11.666 9.89428C6.3189 15.2523 3.37411 22.3758 3.37411 29.9533C3.37411 30.789 3.41119 31.626 3.48306 32.4507C3.37914 32.5259 3.27569 32.603 3.17315 32.6851C1.79116 33.7946 0.768056 35.8342 0.292439 38.4284C-0.259625 41.439 -0.026165 44.9634 0.948873 48.352C1.97426 51.9135 3.73528 55.1475 6.04196 57.704C6.52627 58.2411 7.20285 58.5379 7.91055 58.5379C8.05108 58.5379 8.19299 58.5264 8.3349 58.5021C9.19458 58.3576 9.91098 57.7912 10.2511 56.9885C10.7308 55.8584 11.1213 54.8195 11.4102 53.9022C11.6326 53.1982 12.2785 52.7253 13.0165 52.7253C13.3772 52.7253 13.7223 52.8381 14.0125 53.05C14.3037 53.2637 14.5147 53.5577 14.6227 53.9008C14.9121 54.82 15.3021 55.8588 15.7818 56.9871C16.1219 57.7907 16.8379 58.3572 17.6975 58.5021C18.5527 58.6461 19.4105 58.3489 19.9923 57.704C20.3947 57.2573 20.7829 56.7835 21.155 56.2918C24.5004 57.638 28.0384 58.3218 31.6868 58.3218C39.2491 58.3218 46.3591 55.3708 51.7067 50.0132C57.0543 44.6552 59.9995 37.5313 59.9995 29.9533C59.9995 22.3762 57.0543 15.2523 51.7067 9.89428ZM18.0871 56.1863C18.0166 56.1744 17.9672 56.135 17.9388 56.0689C17.4948 55.0232 17.1208 54.0292 16.8576 53.1936C16.5985 52.3717 16.094 51.6667 15.3955 51.1535C14.8338 50.7439 14.1892 50.4925 13.5104 50.4095C13.8157 50.2127 14.159 50.0898 14.5422 50.0898C15.1895 50.0898 15.7145 49.5642 15.7145 48.9157C15.7145 48.2671 15.1899 47.7415 14.5422 47.7415C11.0417 47.7415 9.65189 51.8006 9.40744 52.6189C9.3168 52.8023 9.23852 52.9936 9.17535 53.1936C8.91214 54.0292 8.5386 55.0232 8.09366 56.0698C8.05932 56.1515 7.99432 56.1781 7.9458 56.1863C7.84738 56.2028 7.79794 56.1483 7.78146 56.1295C3.69454 51.6006 1.56319 44.496 2.59728 38.8527C2.96029 36.8726 3.72338 35.2526 4.63891 34.5179C4.85452 34.3445 5.07104 34.1982 5.28115 34.0835C6.41641 33.4639 7.40197 33.7427 9.04626 34.2895C9.83591 34.5523 10.6992 34.8385 11.6711 34.9972C11.6857 34.9995 11.6999 35.0013 11.7146 35.0036C11.7855 35.0151 11.8574 35.0261 11.9297 35.0357C11.9586 35.0398 11.9869 35.043 12.0153 35.0467C12.0739 35.054 12.1321 35.0614 12.1911 35.0678C12.2305 35.0719 12.2694 35.0751 12.3083 35.0788C12.3573 35.0839 12.4063 35.0884 12.4557 35.0926C12.5065 35.0962 12.5569 35.099 12.6077 35.1022C12.6466 35.105 12.685 35.1077 12.7244 35.1095C12.815 35.1137 12.9052 35.1169 12.9959 35.1187H12.9963C13.0096 35.1192 13.0233 35.1192 13.0366 35.1187C14.5728 35.0921 15.855 34.6656 16.9862 34.2895C18.955 33.635 19.9649 33.3712 21.3945 34.5183C21.5661 34.6559 21.7327 34.8252 21.892 35.0219C22.1044 35.2838 22.3045 35.5953 22.4885 35.9475C22.4885 35.948 22.489 35.9489 22.4894 35.9493C22.792 36.53 23.0488 37.223 23.2452 37.989C23.3166 38.2679 23.3811 38.5555 23.4356 38.8522C23.4672 39.026 23.4951 39.2022 23.5212 39.3787C23.529 39.4324 23.5359 39.4865 23.5432 39.5407C23.5601 39.6654 23.5757 39.7906 23.5899 39.9168C23.5968 39.981 23.6036 40.0452 23.61 40.1099C23.6219 40.23 23.6325 40.3516 23.6416 40.4731C23.6467 40.5378 23.6521 40.602 23.6563 40.6667C23.6668 40.8221 23.6746 40.9785 23.6805 41.1354C23.6842 41.2285 23.686 41.3216 23.6879 41.4152C23.6901 41.5189 23.6924 41.6225 23.6929 41.7271C23.6933 41.8294 23.6924 41.9321 23.6911 42.0348C23.6906 42.1105 23.6892 42.1857 23.6874 42.261C23.6846 42.3765 23.6814 42.4926 23.6764 42.6082C23.6746 42.66 23.6714 42.7118 23.6691 42.7637C23.6462 43.2191 23.6087 43.6782 23.5537 44.1396C23.5537 44.141 23.5537 44.1428 23.5533 44.1442C23.534 44.307 23.5125 44.4699 23.4896 44.6331C23.4883 44.6405 23.4874 44.6474 23.4864 44.6542C23.2965 45.983 22.9779 47.3218 22.5407 48.629C22.5398 48.6317 22.5389 48.6345 22.5384 48.6368C22.4881 48.7868 22.4359 48.9358 22.3828 49.0849C22.3686 49.1248 22.3539 49.1642 22.3393 49.2042C22.1722 49.6637 21.9914 50.1183 21.795 50.5664C21.7922 50.5728 21.7895 50.5792 21.7868 50.5856C21.5876 51.0402 21.3729 51.4874 21.145 51.9258C21.1262 51.9621 21.107 51.9988 21.0882 52.0345C21.0182 52.1671 20.9477 52.2987 20.8753 52.4294C20.8488 52.4776 20.8213 52.5244 20.7943 52.5721C20.6895 52.7578 20.5824 52.9408 20.473 53.1225C20.4052 53.2339 20.3375 53.3454 20.2679 53.455C20.2258 53.522 20.1837 53.5885 20.1411 53.655C20.0262 53.832 19.9099 54.0086 19.7904 54.1815C19.3125 54.8723 18.7948 55.5277 18.2528 56.1295C18.2368 56.1478 18.1864 56.2028 18.0871 56.1863ZM31.6868 55.973C28.5118 55.973 25.4292 55.4107 22.5027 54.2999C22.5059 54.2939 22.5096 54.2879 22.5132 54.2815C22.5933 54.1476 22.6721 54.0123 22.7499 53.8765C22.7627 53.8545 22.7751 53.8325 22.7874 53.8105C23.34 52.8418 23.8293 51.8245 24.2527 50.7654C26.6326 51.6199 29.1275 52.0533 31.6868 52.0533C43.8492 52.0533 53.7437 42.1394 53.7437 29.9533C53.7437 25.9487 52.6629 22.0244 50.6177 18.6051C50.1892 17.8887 49.7177 17.1934 49.216 16.5384C48.8218 16.0233 48.0862 15.9266 47.5731 16.321C47.0595 16.7155 46.9624 17.453 47.3561 17.9671C47.8033 18.5519 48.2245 19.173 48.6072 19.8128C50.4341 22.867 51.4 26.3739 51.4 29.9533C51.4 40.8446 42.5564 49.705 31.6864 49.705C29.392 49.705 27.1559 49.3156 25.0241 48.5478C25.7917 45.9623 26.1286 43.3255 26.0124 40.8616C26.011 40.8272 26.0087 40.7933 26.0069 40.7589C25.9973 40.5708 25.9849 40.3837 25.9698 40.1975C25.9597 40.0704 25.9492 39.9434 25.9364 39.8177C25.9286 39.7411 25.9195 39.6654 25.9108 39.5897C25.8956 39.4563 25.8792 39.3237 25.8613 39.1921C25.8526 39.1297 25.8444 39.0669 25.8352 39.0049C25.8064 38.8114 25.7757 38.6192 25.7409 38.4289C25.4663 36.9272 24.727 34.184 22.8598 32.6851C20.3718 30.6894 18.1809 31.4178 16.2483 32.0604C16.0848 32.115 15.9205 32.1695 15.7548 32.2227C14.9121 32.4952 14.0364 32.7383 13.0801 32.7676C13.0586 32.7685 13.0375 32.7699 13.0165 32.7704C12.8979 32.7676 12.7784 32.7612 12.6576 32.752C12.6434 32.7511 12.6287 32.7502 12.6145 32.7488C12.4996 32.7397 12.3829 32.7268 12.2657 32.7108C12.247 32.7085 12.2286 32.7062 12.2103 32.7034C12.1948 32.7011 12.1783 32.6979 12.1623 32.6956C12.0373 31.7911 11.9732 30.872 11.9732 29.9538C11.9732 19.0624 20.8163 10.2016 31.6864 10.2016C34.8491 10.2016 37.8698 10.9295 40.6645 12.3646C41.2404 12.6605 41.9467 12.432 42.2419 11.8551C42.5372 11.2781 42.3097 10.5703 41.7334 10.2745C38.605 8.66782 35.2244 7.85325 31.6864 7.85325C19.524 7.85325 9.62945 17.7676 9.62945 29.9538C9.62945 30.6509 9.66287 31.3485 9.72742 32.0416C9.34839 31.9154 8.96661 31.7898 8.57934 31.682C8.57385 31.6806 8.56836 31.6788 8.56286 31.6774C8.48779 31.6568 8.41272 31.6366 8.33719 31.6173C8.33215 31.6159 8.32712 31.6146 8.32208 31.6132C8.24609 31.5939 8.16964 31.5756 8.0932 31.5581C8.08038 31.5549 8.06711 31.5522 8.05383 31.5494C7.98929 31.5348 7.92474 31.521 7.8602 31.5082C7.84509 31.5054 7.83044 31.5022 7.81534 31.499C7.74209 31.4848 7.66839 31.4715 7.59469 31.4595C7.57821 31.4568 7.56173 31.4545 7.5448 31.4517C7.48483 31.4426 7.42486 31.4338 7.36444 31.4261C7.3443 31.4238 7.32415 31.421 7.30447 31.4187C7.23169 31.41 7.15844 31.4022 7.0852 31.3962C7.06826 31.3949 7.05087 31.3939 7.03347 31.3926C6.97351 31.388 6.914 31.3848 6.85403 31.382C6.8316 31.3811 6.80917 31.3802 6.78674 31.3793C6.71304 31.3774 6.63934 31.3761 6.56518 31.377C6.54962 31.377 6.53405 31.3779 6.51849 31.3783C6.45623 31.3793 6.39352 31.382 6.33126 31.3852C6.30792 31.3866 6.28457 31.388 6.26123 31.3898C6.18569 31.3949 6.10971 31.4017 6.03326 31.4105C6.02319 31.4118 6.01312 31.4132 6.00305 31.4146C5.93392 31.4228 5.86434 31.4334 5.79476 31.4453C5.78286 31.4471 5.77142 31.4481 5.75952 31.4504C5.73159 30.9532 5.7174 30.4532 5.7174 29.9538C5.7174 15.6064 17.367 3.934 31.6864 3.934C46.0057 3.934 57.6553 15.6064 57.6553 29.9538C57.6553 44.3011 46.0061 55.973 31.6868 55.973Z" fill="#47A542"/>
<path d="M5.7672 37.3326C5.14418 37.1565 4.49644 37.5188 4.32066 38.143C3.90913 39.6007 3.82353 41.4133 4.0666 43.5309C4.13527 44.1299 4.64201 44.5711 5.22932 44.5711C5.27419 44.5711 5.31905 44.5689 5.36482 44.5634C6.00752 44.4895 6.46895 43.907 6.39525 43.2631C6.13616 41.006 6.35085 39.5805 6.57607 38.7819C6.75185 38.1577 6.38976 37.5087 5.7672 37.3326Z" fill="#47A542"/>
<path d="M40.0763 26.4666L32.2723 28.5787L27.9093 20.5719C27.599 20.0027 26.8867 19.7931 26.3191 20.1036C25.751 20.4146 25.5418 21.1282 25.8522 21.697L30.6578 30.5161C30.867 30.9 31.2657 31.1279 31.6864 31.1279C31.7875 31.1279 31.8905 31.1146 31.9921 31.0871L40.6878 28.7337C41.3127 28.5645 41.6821 27.9201 41.5136 27.294C41.3443 26.6679 40.7016 26.2982 40.0763 26.4666Z" fill="#47A542"/>
<path d="M31.6865 16.1053C32.3338 16.1053 32.8584 15.5792 32.8584 14.9307V12.9937C32.8584 12.3452 32.3338 11.8196 31.6865 11.8196C31.0392 11.8196 30.5146 12.3452 30.5146 12.9937V14.9307C30.5146 15.5792 31.0392 16.1053 31.6865 16.1053Z" fill="#47A542"/>
<path d="M31.6865 43.802C31.0392 43.802 30.5146 44.3276 30.5146 44.9762V46.9131C30.5146 47.5616 31.0392 48.0873 31.6865 48.0873C32.3338 48.0873 32.8584 47.5616 32.8584 46.9131V44.9762C32.8584 44.3276 32.3338 43.802 31.6865 43.802Z" fill="#47A542"/>
<path d="M45.5078 29.9537C45.5078 30.6023 46.0329 31.1279 46.6801 31.1279H48.6133C49.2606 31.1279 49.7852 30.6023 49.7852 29.9537C49.7852 29.3052 49.2601 28.7795 48.6133 28.7795H46.6801C46.0329 28.7795 45.5078 29.3052 45.5078 29.9537Z" fill="#47A542"/>
<path d="M16.6934 28.7795H14.7603C14.113 28.7795 13.5884 29.3052 13.5884 29.9537C13.5884 30.6023 14.113 31.1279 14.7603 31.1279H16.6934C17.3407 31.1279 17.8653 30.6023 17.8653 29.9537C17.8653 29.3052 17.3407 28.7795 16.6934 28.7795Z" fill="#47A542"/>
<path d="M45.8062 14.9384C45.8708 14.8962 45.9308 14.8467 45.9843 14.7926C46.0383 14.7389 46.0878 14.6788 46.1308 14.6142C46.1729 14.5509 46.2095 14.483 46.2388 14.411C46.2681 14.3404 46.2901 14.2665 46.3052 14.1913C46.3208 14.1165 46.3276 14.039 46.3276 13.9624C46.3276 13.8863 46.3208 13.8088 46.3052 13.7322C46.2901 13.6583 46.2681 13.5845 46.2388 13.5129C46.2095 13.4423 46.1729 13.3744 46.1308 13.3107C46.0878 13.2464 46.0383 13.1864 45.9843 13.1322C45.7138 12.8598 45.3082 12.7341 44.9273 12.8107C44.8523 12.8259 44.7786 12.8483 44.7081 12.8777C44.638 12.907 44.5689 12.9433 44.5053 12.9855C44.4412 13.029 44.3812 13.0781 44.3272 13.1322C44.2732 13.1864 44.2242 13.2464 44.1821 13.3107C44.14 13.3744 44.1034 13.4423 44.0741 13.5129C44.0448 13.5845 44.0228 13.6583 44.0072 13.7322C43.9921 13.8088 43.9839 13.8863 43.9839 13.9624C43.9839 14.039 43.9921 14.1165 44.0072 14.1913C44.0228 14.2665 44.0448 14.3408 44.0741 14.411C44.1034 14.4825 44.14 14.5509 44.1821 14.6142C44.2242 14.6788 44.2732 14.7389 44.3272 14.7926C44.3812 14.8467 44.4412 14.8962 44.5053 14.9384C44.5698 14.9806 44.638 15.0169 44.7081 15.0462C44.7786 15.0756 44.8523 15.0981 44.9273 15.1132C45.0024 15.1288 45.0798 15.1366 45.1558 15.1366C45.2322 15.1366 45.3091 15.1288 45.3856 15.1132C45.4606 15.0981 45.533 15.0756 45.6048 15.0462C45.6749 15.0169 45.7431 14.9806 45.8062 14.9384Z" fill="#47A542"/>
</g>
<defs>
<clipPath id="clip0_123_2723">
<rect width="60" height="60" fill="white" transform="translate(-0.000488281)"/>
</clipPath>
</defs>
</svg>
