<svg width="45" height="45" viewBox="0 0 45 45" fill="none" xmlns="http://www.w3.org/2000/svg">
<g clip-path="url(#clip0_106_494)">
<path d="M22.5 45C34.9264 45 45 34.9264 45 22.5C45 10.0736 34.9264 0 22.5 0C10.0736 0 0 10.0736 0 22.5C0 34.9264 10.0736 45 22.5 45Z" fill="#FF6800"/>
<path d="M21.3926 27.0976C19.6488 26.917 18.0768 26.4878 16.7298 25.4338C16.5588 25.3085 16.3948 25.1741 16.2383 25.0312C15.9835 24.8042 15.8206 24.4917 15.7803 24.1528C15.74 23.8139 15.8251 23.472 16.0196 23.1915C16.2141 22.9111 16.5045 22.7115 16.836 22.6305C17.1676 22.5494 17.5173 22.5925 17.8192 22.7516C17.9543 22.8154 18.0832 22.8917 18.2041 22.9795C19.452 23.8264 20.9224 24.2856 22.4305 24.2993C23.9385 24.313 25.417 23.8806 26.6801 23.0565C26.9245 22.8612 27.2053 22.7164 27.5061 22.6302C27.7835 22.5494 28.08 22.5638 28.3482 22.6711C28.6165 22.7785 28.8412 22.9725 28.9863 23.2223C29.3564 23.8144 29.3505 24.4065 28.8975 24.8743C28.2014 25.5793 27.3597 26.1238 26.4314 26.47C25.5285 26.7939 24.5886 27.0037 23.6337 27.0947C23.7788 27.2516 23.8469 27.3286 23.9298 27.4203C25.2265 28.723 26.5261 30.0167 27.8169 31.3253C28.0237 31.5112 28.1643 31.7593 28.2177 32.0322C28.2712 32.3051 28.2344 32.5879 28.113 32.8381C27.9872 33.1113 27.7836 33.3414 27.5277 33.4994C27.2717 33.6574 26.9748 33.7363 26.6742 33.7262C26.3213 33.6969 25.993 33.5338 25.7564 33.2703C24.7765 32.2874 23.7817 31.3193 22.8225 30.3098C22.5442 30.0138 22.411 30.073 22.1653 30.3098C21.1784 31.3223 20.1817 32.323 19.1751 33.3118C18.9885 33.518 18.7389 33.6566 18.4652 33.7058C18.1915 33.7551 17.9091 33.7123 17.6623 33.5841C17.3942 33.4598 17.1678 33.2606 17.0102 33.0106C16.8527 32.7606 16.7707 32.4704 16.7742 32.1749C16.8022 31.8094 16.9723 31.4694 17.2478 31.2276C18.5288 29.9486 19.8117 28.6657 21.0965 27.3789C21.1913 27.3197 21.2682 27.2368 21.3926 27.0976Z" fill="white"/>
<path d="M22.4555 22.6391C21.3274 22.6325 20.2265 22.2911 19.2927 21.6581C18.3588 21.0252 17.6339 20.1291 17.21 19.0836C16.786 18.0381 16.6821 16.8902 16.9113 15.7856C17.1406 14.6809 17.6927 13.6693 18.4977 12.8788C19.3027 12.0884 20.3243 11.5548 21.433 11.3457C22.5416 11.1367 23.6874 11.2615 24.725 11.7045C25.7626 12.1475 26.6453 12.8886 27.2611 13.8338C27.8769 14.7791 28.1982 15.886 28.1841 17.0141C28.1646 18.5178 27.5515 19.9529 26.4785 21.0066C25.4054 22.0602 23.9594 22.647 22.4555 22.6391ZM25.2828 16.9401C25.2816 16.3886 25.1168 15.8498 24.8092 15.3921C24.5016 14.9344 24.065 14.5783 23.5548 14.3689C23.0446 14.1594 22.4838 14.1062 21.9433 14.2158C21.4028 14.3254 20.907 14.5929 20.5187 14.9846C20.1304 15.3762 19.8671 15.8742 19.7621 16.4156C19.6571 16.957 19.7151 17.5174 19.9289 18.0258C20.1426 18.5342 20.5025 18.9677 20.9628 19.2714C21.4231 19.5751 21.9633 19.7354 22.5147 19.7318C22.8799 19.7307 23.2413 19.6575 23.5781 19.5165C23.915 19.3755 24.2207 19.1694 24.4779 18.9101C24.735 18.6508 24.9384 18.3433 25.0766 18.0053C25.2147 17.6672 25.2848 17.3052 25.2828 16.9401Z" fill="white"/>
</g>
<defs>
<clipPath id="clip0_106_494">
<rect width="45" height="45" fill="white"/>
</clipPath>
</defs>
</svg>
