<svg width="25" height="25" viewBox="0 0 25 25" fill="none" xmlns="http://www.w3.org/2000/svg">
<g clip-path="url(#clip0_178_80)">
<path d="M17.9916 25C13.6089 25 8.92881 23.3896 5.26953 19.7304C1.61636 16.0772 0 11.4002 0 7.00845C0 3.13789 3.13145 0 7.00845 0C7.30796 0 7.57725 0.182324 7.68848 0.4604L10.8265 8.30547C10.9768 8.68105 10.7941 9.10728 10.4186 9.25752L6.97144 10.6363C7.21528 14.6021 10.3986 17.7852 14.3637 18.0287L15.7425 14.5815C15.8924 14.2066 16.3185 14.0232 16.6946 14.1735L24.5396 17.3115C24.8176 17.4228 25 17.692 25 17.9916C25 21.8621 21.8686 25 17.9916 25Z" fill="white"/>
</g>
<defs>
<clipPath id="clip0_178_80">
<rect width="25" height="25" fill="white"/>
</clipPath>
</defs>
</svg>
