<svg width="60" height="60" viewBox="0 0 60 60" fill="none" xmlns="http://www.w3.org/2000/svg">
<g clip-path="url(#clip0_121_2588)">
<path d="M23.9578 52.8363L23.6685 39.3168C23.6383 37.8895 22.9782 36.5633 21.858 35.6785L19.9162 34.1441C18.6322 33.1292 16.9677 32.6907 15.3509 32.9406C14.109 33.1329 12.9632 33.7202 12.0825 34.5963L9.01549 31.9752C8.85482 31.8378 8.75091 31.647 8.72207 31.4373L6.89331 18.077C6.65985 16.3705 5.18494 15.0837 3.46238 15.0837C2.464 15.0837 1.51414 15.515 0.856333 16.2661C0.198986 17.0178 -0.102222 18.0162 0.0300718 19.0058L2.12571 34.665C2.31843 36.1051 3.01239 37.4413 4.0799 38.4269L13.7135 47.3221C14.1205 47.6979 14.3539 48.2312 14.3539 48.7851V53.1192C13.6206 53.5468 13.1253 54.3401 13.1253 55.2483V57.18C13.1253 58.5396 14.2312 59.6451 15.5908 59.6451H23.4492C24.8088 59.6451 25.9143 58.5391 25.9143 57.18V55.2483C25.9147 54.0636 25.0738 53.0716 23.9578 52.8363ZM5.67016 36.7048C5.00275 36.0891 4.56925 35.2541 4.44885 34.3542L2.35322 18.695C2.30973 18.3705 2.40449 18.0564 2.62009 17.8097C2.8357 17.5634 3.13508 17.4275 3.46238 17.4275C4.01901 17.4275 4.49555 17.8436 4.57108 18.3952L6.39984 31.7555C6.5065 32.535 6.89468 33.2459 7.49297 33.7568L8.74175 34.8243L13.8202 39.1749C14.0413 39.3644 14.3123 39.4568 14.5819 39.4568C14.9124 39.4568 15.2406 39.3181 15.4727 39.0476C15.8934 38.556 15.8366 37.8162 15.345 37.3951L13.8678 36.1298C14.3768 35.6684 15.009 35.3654 15.7089 35.2569C16.699 35.1049 17.6773 35.3617 18.4633 35.9829L20.4051 37.5173C20.9745 37.9673 21.3096 38.6411 21.3252 39.3667L21.6122 52.7828H16.6977V48.7851C16.6977 47.5789 16.1895 46.418 15.3033 45.6L5.67016 36.7048ZM23.571 57.18C23.571 57.2469 23.516 57.3018 23.4492 57.3018H15.5908C15.524 57.3018 15.469 57.2469 15.469 57.18V55.2487C15.469 55.1814 15.524 55.127 15.5908 55.127H23.4492C23.516 55.127 23.571 55.1814 23.571 55.2487V57.18Z" fill="#47A542"/>
<path d="M59.1424 16.2661C58.4846 15.515 57.5347 15.0837 56.5364 15.0837C54.8142 15.0837 53.3393 16.3705 53.1054 18.077L51.2767 31.4378C51.2483 31.647 51.1439 31.8378 50.9832 31.9752L49.7628 33.0184C49.7624 33.0184 49.7619 33.0189 49.7619 33.0189L49.7303 33.0459L47.9162 34.5963C47.0355 33.7202 45.8897 33.1329 44.6473 32.9411C43.0301 32.6907 41.3666 33.1297 40.0825 34.1441L38.1407 35.6785C37.0206 36.5633 36.3609 37.8895 36.3303 39.3168L36.0409 52.8363C34.9249 53.0716 34.0845 54.0636 34.0845 55.2487V57.18C34.0845 58.5396 35.1904 59.6455 36.5495 59.6455H44.4079C45.7675 59.6455 46.8734 58.5396 46.8734 57.18V55.2487C46.8734 54.3401 46.3781 53.5468 45.6448 53.1192V48.7851C45.6448 48.2312 45.8783 47.6979 46.2852 47.3221L55.9193 38.4269C56.9863 37.4413 57.6803 36.1056 57.873 34.6654L59.9691 19.0063C60.1009 18.0162 59.7997 17.0178 59.1424 16.2661ZM44.5292 57.18C44.5292 57.2469 44.4748 57.3018 44.4079 57.3018H36.5495C36.4827 57.3018 36.4278 57.2469 36.4278 57.18V55.2487C36.4278 55.1814 36.4827 55.127 36.5495 55.127H44.4079C44.4748 55.127 44.5292 55.1814 44.5292 55.2487V57.18ZM57.6455 18.695L55.5499 34.3542C55.4295 35.2541 54.996 36.0891 54.3286 36.7048L44.695 45.6005C43.8092 46.4185 43.3006 47.5794 43.3006 48.7851V52.7832H38.3861L38.6731 39.3671C38.6886 38.6416 39.0242 37.9673 39.5936 37.5178L41.5355 35.9829C42.3215 35.3622 43.2992 35.1049 44.2894 35.2573C44.9897 35.3654 45.6215 35.6689 46.1305 36.1298L44.6538 37.3955C44.1621 37.8162 44.1049 38.556 44.526 39.0476C44.7577 39.3181 45.0859 39.4573 45.4164 39.4573C45.6865 39.4573 45.9575 39.3644 46.1786 39.1753L51.2176 34.8582L52.5058 33.7572C53.1036 33.2459 53.4918 32.535 53.5984 31.7559L55.4272 18.3952C55.5027 17.8436 55.9797 17.4279 56.5364 17.4279C56.8637 17.4279 57.163 17.5634 57.3786 17.8102C57.5942 18.0564 57.689 18.3705 57.6455 18.695Z" fill="#47A542"/>
<path d="M15.7155 9.70862C15.9448 9.93933 16.2456 10.0542 16.5463 10.0542C16.8453 10.0542 17.1442 9.9407 17.3731 9.71319C17.8317 9.2568 17.834 8.51477 17.3776 8.05609L12.1399 2.78954C11.6835 2.33086 10.9415 2.32857 10.4828 2.78496C10.0237 3.24135 10.0219 3.98338 10.4782 4.44252L15.7155 9.70862Z" fill="#47A542"/>
<path d="M43.4524 10.0542C43.7532 10.0542 44.0544 9.93933 44.2833 9.70862L49.521 4.44252C49.9774 3.98338 49.9751 3.24135 49.5164 2.78496C49.0573 2.32857 48.3152 2.33086 47.8589 2.78954L42.6211 8.05609C42.1648 8.51477 42.167 9.2568 42.6257 9.71319C42.8546 9.9407 43.1535 10.0542 43.4524 10.0542Z" fill="#47A542"/>
<path d="M24.5166 5.91427C24.664 6.42833 25.1327 6.76296 25.6422 6.76296C25.7493 6.76296 25.8578 6.74831 25.9658 6.71718C26.5879 6.53911 26.9477 5.88955 26.7692 5.26745L25.6363 1.31787C25.4577 0.695774 24.8086 0.335973 24.1865 0.5145C23.5644 0.693028 23.2046 1.34214 23.3832 1.96423L24.5166 5.91427Z" fill="#47A542"/>
<path d="M34.0332 6.71713C34.1412 6.74826 34.2497 6.76337 34.3568 6.76337C34.8663 6.76337 35.3351 6.42829 35.4825 5.91422L36.6159 1.96419C36.794 1.34209 36.4346 0.692979 35.8125 0.51491C35.19 0.335925 34.5413 0.696184 34.3628 1.31783L33.2298 5.26786C33.0513 5.88996 33.4111 6.53906 34.0332 6.71713Z" fill="#47A542"/>
<path d="M35.4492 20.5568C35.3366 21.1941 35.7623 21.8024 36.3995 21.9146C36.4686 21.9269 36.5368 21.9329 36.6046 21.9329C37.1626 21.9329 37.657 21.5328 37.7572 20.9643C38.334 17.694 36.5991 14.6064 36.5249 14.4764C36.204 13.9143 35.4881 13.7193 34.9264 14.0397C34.3643 14.3606 34.1683 15.0765 34.4892 15.6382C34.5034 15.6629 35.8735 18.1504 35.4492 20.5568Z" fill="#47A542"/>
<path d="M34.7758 35.0885C35.4588 35.0885 36.112 34.8029 36.5794 34.2861C38.7446 31.8906 40.3976 28.8611 41.3598 25.5254C42.2753 22.3504 42.4941 19.0485 41.9759 16.2269C41.7164 14.8133 41.0178 12.2315 39.2536 10.8193C36.8943 8.9306 34.8243 9.61771 32.9978 10.2238C32.0558 10.5364 31.0816 10.8596 29.9995 10.8825C28.9173 10.8596 27.9432 10.5364 27.0012 10.2238C25.1751 9.61771 23.1051 8.9306 20.7458 10.8193C18.9816 12.2315 18.2826 14.8133 18.0231 16.2269C17.5049 19.0481 17.7237 22.3504 18.6397 25.5254C19.6014 28.8611 21.2544 31.8906 23.4196 34.2861C23.9799 34.9059 24.8071 35.1929 25.6334 35.0542C26.4628 34.915 27.154 34.3694 27.4832 33.5958C27.9341 32.5342 28.2998 31.5624 28.5699 30.7077C28.7677 30.082 29.3422 29.6618 29.9995 29.6618C30.6573 29.6618 31.2318 30.082 31.4295 30.7077C31.6996 31.5624 32.0654 32.5342 32.5163 33.5953C32.8449 34.3694 33.5366 34.915 34.3661 35.0542C34.503 35.0771 34.6398 35.0885 34.7758 35.0885ZM29.9995 27.318C28.3149 27.318 26.8423 28.3965 26.3347 30.0014C26.087 30.7851 25.7473 31.686 25.3257 32.6793C25.3193 32.694 25.3029 32.7333 25.2443 32.743C25.1921 32.7516 25.1701 32.7274 25.1582 32.7141C21.351 28.5027 19.3648 21.8967 20.3283 16.6503C20.6643 14.8193 21.3679 13.3233 22.2102 12.6495C22.8552 12.1327 23.4086 11.9303 24.022 11.9303C24.6515 11.9303 25.3436 12.1432 26.2628 12.4485C27.3262 12.8014 28.531 13.2011 29.9789 13.2262C29.9926 13.2267 30.0064 13.2267 30.0201 13.2262C31.468 13.2011 32.6728 12.8014 33.7362 12.4485C35.5512 11.8461 36.4819 11.603 37.7888 12.6495C38.6311 13.3233 39.3347 14.8193 39.6706 16.6503C40.6342 21.8967 38.648 28.5027 34.8408 32.7146C34.8289 32.7274 34.8065 32.7512 34.7547 32.743C34.6966 32.7333 34.6797 32.694 34.6733 32.6789C34.2512 31.686 33.912 30.7851 33.6643 30.0014C33.1567 28.3965 31.6841 27.318 29.9995 27.318Z" fill="#47A542"/>
<path d="M37.0704 24.0619C37.0411 23.9918 37.0049 23.9236 36.9628 23.8605C36.9193 23.7959 36.8699 23.7359 36.8163 23.6824C36.7623 23.6284 36.7024 23.5789 36.6378 23.5359C36.5746 23.4938 36.5069 23.4572 36.4364 23.4279C36.365 23.3986 36.2908 23.3766 36.2171 23.361C36.0661 23.3308 35.91 23.3308 35.7589 23.361C35.6838 23.3766 35.6101 23.3986 35.5401 23.4279C35.4687 23.4572 35.4005 23.4938 35.3373 23.5359C35.2728 23.5789 35.2128 23.6284 35.1592 23.6824C35.1052 23.7359 35.0558 23.7959 35.0137 23.8605C34.9716 23.9236 34.9354 23.9918 34.9061 24.0619C34.8768 24.1337 34.8544 24.2074 34.8393 24.2811C34.8242 24.3571 34.8159 24.4345 34.8159 24.5109C34.8159 24.5869 34.8242 24.6643 34.8393 24.7394C34.8544 24.8144 34.8768 24.8881 34.9061 24.9586C34.9354 25.03 34.9716 25.0978 35.0137 25.161C35.0558 25.2255 35.1052 25.2855 35.1592 25.3395C35.2128 25.3935 35.2728 25.4425 35.3373 25.4846C35.4005 25.5267 35.4687 25.5633 35.5401 25.5926C35.6101 25.6219 35.6838 25.6439 35.7589 25.659C35.834 25.6746 35.9113 25.6828 35.9873 25.6828C36.0638 25.6828 36.1411 25.6746 36.2171 25.659C36.2908 25.6439 36.365 25.6219 36.4364 25.5926C36.5069 25.5633 36.5746 25.5267 36.6378 25.4846C36.7024 25.4425 36.7623 25.3935 36.8163 25.3395C37.0352 25.1202 37.1597 24.819 37.1597 24.5109C37.1597 24.4345 37.1523 24.3571 37.1372 24.2811C37.1221 24.2074 37.0997 24.1337 37.0704 24.0619Z" fill="#47A542"/>
</g>
<defs>
<clipPath id="clip0_121_2588">
<rect width="60" height="59.9998" fill="white" transform="translate(-0.000488281)"/>
</clipPath>
</defs>
</svg>
