<svg width="25" height="25" viewBox="0 0 25 25" fill="none" xmlns="http://www.w3.org/2000/svg">
<g clip-path="url(#clip0_106_344)">
<path d="M24.9348 10.0535C24.7712 9.54724 24.3222 9.1877 23.791 9.13982L16.5753 8.48463L13.722 1.80626C13.5116 1.31682 13.0325 1 12.5001 1C11.9678 1 11.4886 1.31682 11.2782 1.8074L8.42497 8.48463L1.20814 9.13982C0.677886 9.18884 0.230029 9.54724 0.0654206 10.0535C-0.0991878 10.5597 0.0528318 11.1149 0.453957 11.4649L5.90816 16.2483L4.29984 23.333C4.18216 23.8539 4.38434 24.3923 4.81656 24.7048C5.04888 24.8726 5.32068 24.9581 5.59478 24.9581C5.8311 24.9581 6.06552 24.8944 6.27591 24.7685L12.5001 21.0485L18.7221 24.7685C19.1774 25.0424 19.7513 25.0174 20.1826 24.7048C20.615 24.3914 20.817 23.8527 20.6993 23.333L19.091 16.2483L24.5452 11.4659C24.9463 11.1149 25.0994 10.5606 24.9348 10.0535Z" fill="#FBBF24"/>
</g>
<defs>
<clipPath id="clip0_106_344">
<rect width="25" height="25" fill="white"/>
</clipPath>
</defs>
</svg>
