<svg width="155" height="155" viewBox="0 0 155 155" fill="none" xmlns="http://www.w3.org/2000/svg">
<g clip-path="url(#clip0_135_7)">
<path d="M154.999 60.5267C154.991 57.837 153.818 55.286 151.781 53.5277C149.74 51.7646 147.041 50.9755 144.376 51.3653L139.559 52.0655C131.628 53.2208 123.542 51.2219 116.789 46.4386L109.882 41.5486C107.86 40.1173 105.145 40.1185 103.128 41.5486L96.2223 46.4386C94.1185 47.928 91.8918 49.1484 89.568 50.0892C90.1487 43.5771 89.911 37.2144 88.8549 31.4571C87.2254 22.5445 83.7475 15.5656 79.0622 11.8048C70.7323 5.12808 63.6097 7.49546 56.7225 9.78581C53.0507 11.0062 49.2547 12.2693 44.936 12.3534C40.6173 12.2693 36.8213 11.0062 33.1494 9.78581C26.2622 7.49546 19.1385 5.12808 10.8098 11.806C6.12921 15.5621 2.6525 22.5409 1.01821 31.4559C-0.903448 41.9396 -0.0874841 54.2256 3.3171 66.0517C6.89669 78.4905 13.0413 89.78 21.0897 98.7008C22.8896 100.693 25.5444 101.613 28.1922 101.167C30.8541 100.716 33.0714 98.9627 34.1227 96.478C35.8197 92.4779 37.1879 88.838 38.1907 85.6566C39.1214 82.6992 41.833 80.7121 44.936 80.7121C46.4544 80.7121 47.8995 81.1849 49.1211 82.0818C50.3438 82.9776 51.2307 84.2134 51.686 85.6566C52.6936 88.8558 54.0606 92.4957 55.7505 96.478C56.6563 98.6143 58.442 100.233 60.6498 100.919C61.4232 101.159 62.2155 101.278 63.0031 101.278C63.1568 101.278 63.3094 101.271 63.4631 101.263C66.2303 110.618 70.0038 118.812 74.7068 125.645C81.0879 134.916 89.2275 141.766 98.8984 146.006C101.317 147.064 103.91 147.592 106.506 147.592C109.1 147.592 111.697 147.064 114.116 146.006C130.365 138.882 142.02 124.696 148.76 103.841C154.256 86.8273 155.028 69.4002 154.999 60.5267ZM61.3227 94.1047C59.7097 90.3013 58.41 86.845 57.4604 83.8307C56.6137 81.1458 54.9652 78.846 52.6971 77.186C50.4337 75.5248 47.7505 74.6456 44.9372 74.6456C39.1781 74.6456 34.1463 78.3377 32.4163 83.8307C31.4726 86.8273 30.1718 90.2835 28.5505 94.1071C28.2016 94.9306 27.4791 95.1344 27.1858 95.1841C26.8973 95.2339 26.1641 95.2766 25.5811 94.632C10.9079 78.3673 3.2556 52.8393 6.97356 32.5531C8.32522 25.1796 11.103 19.3442 14.594 16.5431C17.3824 14.3073 19.835 13.4921 22.3669 13.4921C25.0679 13.4921 27.8599 14.4198 31.2432 15.5443C35.1704 16.85 39.6204 18.3299 44.8839 18.4211H44.9892C50.2539 18.3299 54.7039 16.85 58.63 15.5443C65.1873 13.3653 69.519 11.9245 75.278 16.5419C78.7737 19.3477 81.5515 25.1832 82.8996 32.5531C83.9852 38.4644 84.1164 45.1139 83.291 51.9032C83.2697 51.9068 83.2473 51.9115 83.2248 51.9151C82.87 51.979 82.5141 52.0347 82.157 52.0857C82.0884 52.0952 82.0198 52.1046 81.9524 52.1141C81.587 52.1627 81.2215 52.2077 80.855 52.2433C80.8408 52.2444 80.8266 52.2456 80.8136 52.2468C80.4553 52.2812 80.0969 52.3072 79.7386 52.3298C79.6736 52.3333 79.6074 52.3381 79.5411 52.3416C79.1852 52.3606 78.8292 52.3736 78.4721 52.3807C78.4023 52.3819 78.3326 52.3831 78.2628 52.3831C77.8938 52.3878 77.5261 52.3878 77.1571 52.3795C77.15 52.3795 77.1441 52.3783 77.1382 52.3783C76.7728 52.37 76.4074 52.3523 76.0408 52.3298C75.9734 52.3262 75.906 52.3227 75.8385 52.3179C75.4814 52.2942 75.1231 52.2634 74.766 52.2279C74.6974 52.2208 74.6288 52.2125 74.5614 52.2053C74.1901 52.1651 73.8187 52.12 73.4486 52.0667L68.6332 51.3653C65.9666 50.9766 63.2703 51.7646 61.2292 53.5265C59.1941 55.286 58.021 57.837 58.0127 60.5279C58.0115 60.8051 58.0115 61.0871 58.0115 61.3727C58.0127 61.4568 58.0127 61.5421 58.0127 61.6263C58.0139 61.8312 58.0151 62.0362 58.0162 62.2459C58.0174 62.3467 58.0186 62.4509 58.0186 62.554C58.021 62.7495 58.0233 62.945 58.0257 63.1441C58.0269 63.2566 58.0292 63.3692 58.0304 63.4818C58.034 63.6749 58.0363 63.8692 58.0411 64.0647C58.0434 64.1856 58.0458 64.3088 58.0482 64.4308C58.0517 64.6204 58.0564 64.8124 58.0612 65.0055C58.0647 65.1347 58.0683 65.265 58.0718 65.3965C58.0777 65.5885 58.0825 65.7828 58.0884 65.9783C58.0931 66.1086 58.0967 66.239 58.1014 66.3705C58.1085 66.5719 58.1156 66.7769 58.1239 66.9819C58.1286 67.1098 58.1321 67.2378 58.138 67.3669C58.1463 67.5802 58.1558 67.7947 58.1652 68.0103C58.17 68.1359 58.1759 68.2603 58.1818 68.3859C58.1924 68.6146 58.2031 68.8445 58.2149 69.0755C58.2208 69.1928 58.2267 69.3078 58.2326 69.4251C58.2457 69.6834 58.261 69.9429 58.2764 70.2047C58.2811 70.2983 58.2859 70.3907 58.2918 70.4843C58.3343 71.2012 58.3816 71.9287 58.436 72.6692C58.442 72.7569 58.4491 72.8446 58.4562 72.9323C58.4774 73.2131 58.4987 73.4939 58.5212 73.7783C58.5318 73.9062 58.5425 74.0354 58.5531 74.1646C58.5732 74.4098 58.5933 74.6563 58.6158 74.9027C58.6288 75.0485 58.6418 75.1942 58.6548 75.3399C58.6761 75.5745 58.6974 75.8103 58.7199 76.0473C58.7341 76.2013 58.7494 76.3566 58.7648 76.5118C58.7873 76.7416 58.8109 76.9739 58.8346 77.2061C58.8511 77.3673 58.8677 77.5272 58.8854 77.6884C58.9091 77.9194 58.9339 78.1505 58.9599 78.3827C58.9788 78.5462 58.9966 78.7109 59.0155 78.8756C59.0415 79.1078 59.0687 79.3401 59.0959 79.5735C59.116 79.7405 59.1361 79.9076 59.1562 80.0747C59.1846 80.3105 59.2154 80.5474 59.2449 80.7844C59.2662 80.9503 59.2863 81.115 59.3088 81.2821C59.3407 81.5285 59.3738 81.7773 59.4081 82.025C59.4294 82.1837 59.4495 82.3402 59.472 82.4989C59.5098 82.775 59.55 83.0534 59.5902 83.3307C59.6091 83.4622 59.6269 83.5926 59.647 83.7241C59.7026 84.1021 59.7605 84.4824 59.8196 84.8627C59.8244 84.8971 59.8291 84.9303 59.835 84.9646C59.9001 85.3793 59.9675 85.7964 60.0372 86.2159C60.0573 86.3355 60.0786 86.4564 60.0987 86.5772C60.1484 86.8758 60.1992 87.1744 60.2513 87.4742C60.2785 87.6282 60.3069 87.7834 60.334 87.9363C60.3825 88.2041 60.4298 88.4707 60.4795 88.7384C60.5114 88.9091 60.5445 89.0809 60.5765 89.2515C60.6238 89.5051 60.6723 89.7598 60.7219 90.0146C60.7562 90.1911 60.7917 90.3688 60.8272 90.5466C60.8768 90.7966 60.9277 91.0466 60.9785 91.2966C61.0164 91.4791 61.0542 91.6603 61.0921 91.8428C61.1453 92.0916 61.1985 92.3416 61.2517 92.5917C61.2907 92.7729 61.3309 92.9542 61.3712 93.1355C61.4267 93.3891 61.4835 93.6426 61.5414 93.8974C61.5816 94.0763 61.623 94.2552 61.6644 94.4341C61.6845 94.523 61.7046 94.6119 61.7247 94.7019C61.5734 94.5514 61.4303 94.3571 61.3227 94.1047ZM111.69 140.446C108.396 141.888 104.617 141.888 101.324 140.446C85.3889 133.461 74.3367 118.751 68.4736 96.7233C64.5842 82.1257 64.0437 67.7923 64.0674 60.5468C64.0709 59.6013 64.4671 58.7399 65.1837 58.1214C65.2665 58.0491 65.354 57.9828 65.4415 57.9212C65.4699 57.901 65.4995 57.8832 65.529 57.8631C65.5893 57.8228 65.652 57.7849 65.7147 57.7482C65.749 57.7292 65.7845 57.7103 65.8199 57.6925C65.8802 57.6605 65.9417 57.6309 66.0032 57.6036C66.0399 57.5882 66.0754 57.5716 66.112 57.5574C66.1794 57.5302 66.248 57.5076 66.3166 57.4851C66.3485 57.4757 66.3793 57.4638 66.4112 57.4543C66.5117 57.4259 66.6134 57.4022 66.7163 57.3832C66.7317 57.3809 66.7471 57.3797 66.7624 57.3773C66.8511 57.3631 66.941 57.3512 67.0321 57.3441C67.0675 57.3418 67.1042 57.3418 67.1397 57.3394C67.2153 57.3358 67.291 57.3347 67.3679 57.337C67.3939 57.337 67.4211 57.3382 67.4483 57.3394C67.5524 57.3453 67.6564 57.3536 67.7617 57.369L72.5794 58.0693C75.7865 58.5349 79.0031 58.5764 82.1877 58.1984C82.2397 58.1925 82.2918 58.1878 82.345 58.1818C82.4372 58.17 82.5295 58.1558 82.6229 58.1439C83.7061 58.0017 84.7858 57.8133 85.8595 57.574C85.8749 57.5704 85.8891 57.5669 85.9045 57.5633C86.1788 57.5017 86.4544 57.4377 86.7287 57.369H86.7311H86.7323C86.7323 57.369 86.7334 57.369 86.7334 57.3678C91.3608 56.2256 95.7291 54.2161 99.7167 51.3925L106.506 46.5855L113.295 51.3925C121.32 57.0764 130.955 59.4485 140.43 58.0693L145.249 57.3678C146.19 57.2304 147.106 57.4982 147.828 58.1214C148.544 58.7411 148.942 59.6025 148.944 60.5457V60.5468C149.007 79.6327 145.503 125.625 111.69 140.446Z" fill="#5F4A37"/>
<path d="M126.882 84.1104H116.991C116.671 84.1104 116.411 83.8485 116.411 83.5274V73.6148C116.411 71.0804 114.353 69.0187 111.824 69.0187H101.188C98.6571 69.0187 96.5982 71.0804 96.5982 73.6148V83.5274C96.5982 83.8485 96.3392 84.1104 96.02 84.1104H86.1267C83.5972 84.1104 81.5396 86.172 81.5396 88.7065V99.362C81.5396 101.899 83.5972 103.962 86.1267 103.962H96.02C96.3392 103.962 96.5982 104.221 96.5982 104.541V114.454C96.5982 116.988 98.6571 119.05 101.188 119.05H111.824C114.353 119.05 116.411 116.988 116.411 114.454V104.541C116.411 104.221 116.671 103.962 116.991 103.962H126.882C129.413 103.962 131.473 101.899 131.473 99.362V88.7065C131.473 86.172 129.413 84.1104 126.882 84.1104ZM125.417 97.894H116.991C113.333 97.894 110.356 100.875 110.356 104.54V112.982H102.653V104.54C102.653 100.875 99.6776 97.894 96.02 97.894H87.5942V90.1769H96.02C99.6776 90.1769 102.653 87.1946 102.653 83.5274V75.0852H110.356V83.5274C110.356 87.1946 113.333 90.1769 116.991 90.1769H125.417V97.894Z" fill="#5F4A37"/>
<path d="M22.6048 53.6249C18.4564 37.0829 24.3396 26.0766 24.4306 25.9096C25.2442 24.4522 24.7286 22.6097 23.2753 21.7874C21.8207 20.9651 19.9736 21.4805 19.1517 22.9391C18.8549 23.4652 11.9511 36.0438 16.7322 55.1036C17.0787 56.4804 18.3121 57.3975 19.6661 57.3975C19.9109 57.3975 20.1592 57.3679 20.4064 57.3051C22.0289 56.8975 23.0128 55.2493 22.6048 53.6249Z" fill="#5F4A37"/>
<path d="M23.6052 61.4379C21.9331 61.4379 20.5767 62.7957 20.5767 64.4711V64.4794C20.5767 66.1548 21.9331 67.5091 23.6052 67.5091C25.2773 67.5091 26.6325 66.1465 26.6325 64.4711C26.6325 62.7969 25.2773 61.4379 23.6052 61.4379Z" fill="#5F4A37"/>
</g>
<defs>
<clipPath id="clip0_135_7">
<rect width="155" height="155" fill="white"/>
</clipPath>
</defs>
</svg>
