<svg width="12" height="9" viewBox="0 0 12 9" fill="none" xmlns="http://www.w3.org/2000/svg">
<path d="M1.3999e-05 1.32582C-0.00064117 1.45748 0.0210721 1.588 0.0639092 1.70989C0.106747 1.83178 0.169867 1.94264 0.249648 2.03612L5.41446 8.03867C5.57575 8.225 5.79392 8.32959 6.02133 8.32959C6.24874 8.32959 6.46691 8.225 6.6282 8.03867L11.793 2.03612C11.934 1.84474 12.0077 1.59856 11.9994 1.34678C11.991 1.09499 11.9012 0.856153 11.7479 0.677982C11.5946 0.499812 11.3891 0.395434 11.1724 0.385709C10.9558 0.375984 10.744 0.461627 10.5793 0.625523L6.02563 5.91777L1.47199 0.625524C1.3521 0.485042 1.19907 0.38903 1.03223 0.349628C0.865396 0.310227 0.692254 0.329204 0.534699 0.404162C0.377144 0.479119 0.242252 0.60669 0.147079 0.770743C0.0519063 0.934796 0.000727339 1.12796 1.3999e-05 1.32582Z" fill="#47A542"/>
</svg>
