<svg width="309" height="179" viewBox="0 0 309 179" fill="none" xmlns="http://www.w3.org/2000/svg">
<path fill-rule="evenodd" clip-rule="evenodd" d="M78.5415 37.927C67.8256 35.995 61.4259 32.874 47.7335 35.4005C37.6129 37.3325 29.7249 41.1966 23.1763 46.101C-9.41774 70.6228 -6.58997 118.18 25.1111 139.73C44.1615 152.66 57.2587 151.025 81.2205 145.377C81.3693 145.675 81.5181 146.121 81.667 146.269L82.4111 148.201C85.6854 158.604 88.8109 177.627 113.963 178.519C138.669 179.411 143.581 162.617 148.195 150.728C149.385 147.755 148.79 149.241 149.385 148.498C155.934 157.713 162.631 164.995 176.026 168.116C193.588 172.277 199.69 166.035 211.299 161.28C273.659 215.228 339.145 133.339 294.049 84.2957C280.506 69.5825 265.622 65.7185 240.321 67.056C236.898 58.5848 231.54 52.6401 225.736 47.8844C214.573 38.6701 208.025 41.1966 203.857 36.8867C199.839 32.874 192.546 14.5941 168.584 5.23115C149.832 -2.05111 130.186 -1.75388 112.475 6.27147C101.462 11.3245 92.234 19.0526 85.2389 28.2669C82.7088 31.5364 81.0716 35.1033 78.5415 37.927Z" fill="#FDFFFD"/>
</svg>
