<svg width="155" height="141" viewBox="0 0 155 141" fill="none" xmlns="http://www.w3.org/2000/svg">
<path d="M154.999 53.5267C154.991 50.837 153.818 48.286 151.781 46.5277C149.74 44.7646 147.041 43.9755 144.376 44.3653L139.559 45.0655C131.628 46.2208 123.542 44.2219 116.789 39.4386L109.882 34.5486C107.86 33.1173 105.145 33.1185 103.128 34.5486L96.2223 39.4386C94.1185 40.928 91.8918 42.1484 89.568 43.0892C90.1487 36.5771 89.911 30.2144 88.8549 24.4571C87.2254 15.5445 83.7475 8.56561 79.0622 4.80483C70.7323 -1.87192 63.6097 0.495455 56.7225 2.78581C53.0507 4.00623 49.2547 5.2693 44.936 5.35342C40.6173 5.2693 36.8213 4.00623 33.1494 2.78581C26.2622 0.495455 19.1385 -1.87192 10.8098 4.80601C6.12921 8.56205 2.6525 15.5409 1.01821 24.4559C-0.903448 34.9396 -0.0874841 47.2256 3.3171 59.0517C6.89669 71.4905 13.0413 82.78 21.0897 91.7008C22.8896 93.6926 25.5444 94.6133 28.1922 94.1666C30.8541 93.7163 33.0714 91.9627 34.1227 89.478C35.8197 85.4779 37.1879 81.838 38.1907 78.6566C39.1214 75.6992 41.833 73.7121 44.936 73.7121C46.4544 73.7121 47.8995 74.1849 49.1211 75.0818C50.3438 75.9776 51.2307 77.2134 51.686 78.6566C52.6936 81.8558 54.0606 85.4957 55.7505 89.478C56.6563 91.6143 58.442 93.2329 60.6498 93.9189C61.4232 94.1594 62.2155 94.2779 63.0031 94.2779C63.1568 94.2779 63.3094 94.2708 63.4631 94.2625C66.2303 103.618 70.0038 111.812 74.7068 118.645C81.0879 127.916 89.2275 134.766 98.8984 139.006C101.317 140.064 103.91 140.592 106.506 140.592C109.1 140.592 111.697 140.064 114.116 139.006C130.365 131.882 142.02 117.696 148.76 96.8408C154.256 79.8273 155.028 62.4002 154.999 53.5267ZM61.3227 87.1047C59.7097 83.3013 58.41 79.845 57.4604 76.8307C56.6137 74.1458 54.9652 71.846 52.6971 70.186C50.4337 68.5248 47.7505 67.6456 44.9372 67.6456C39.1781 67.6456 34.1463 71.3377 32.4163 76.8307C31.4726 79.8273 30.1718 83.2835 28.5505 87.1071C28.2016 87.9306 27.4791 88.1344 27.1858 88.1841C26.8973 88.2339 26.1641 88.2766 25.5811 87.632C10.9079 71.3673 3.2556 45.8393 6.97356 25.5531C8.32522 18.1796 11.103 12.3442 14.594 9.54312C17.3824 7.30727 19.835 6.49208 22.3669 6.49208C25.0679 6.49208 27.8599 7.41984 31.2432 8.54428C35.1704 9.85001 39.6204 11.3299 44.8839 11.4211H44.9892C50.2539 11.3299 54.7039 9.85001 58.63 8.54428C65.1873 6.3653 69.519 4.9245 75.278 9.54194C78.7737 12.3477 81.5515 18.1832 82.8996 25.5531C83.9852 31.4644 84.1164 38.1139 83.291 44.9032C83.2697 44.9068 83.2473 44.9115 83.2248 44.9151C82.87 44.979 82.5141 45.0347 82.157 45.0857C82.0884 45.0952 82.0198 45.1046 81.9524 45.1141C81.587 45.1627 81.2215 45.2077 80.855 45.2433C80.8408 45.2444 80.8266 45.2456 80.8136 45.2468C80.4553 45.2812 80.0969 45.3072 79.7386 45.3298C79.6736 45.3333 79.6074 45.3381 79.5411 45.3416C79.1852 45.3606 78.8292 45.3736 78.4721 45.3807C78.4023 45.3819 78.3326 45.3831 78.2628 45.3831C77.8938 45.3878 77.5261 45.3878 77.1571 45.3795C77.15 45.3795 77.1441 45.3783 77.1382 45.3783C76.7728 45.37 76.4074 45.3523 76.0408 45.3298C75.9734 45.3262 75.906 45.3227 75.8385 45.3179C75.4814 45.2942 75.1231 45.2634 74.766 45.2279C74.6974 45.2208 74.6288 45.2125 74.5614 45.2053C74.1901 45.1651 73.8187 45.12 73.4486 45.0667L68.6332 44.3653C65.9666 43.9766 63.2703 44.7646 61.2292 46.5265C59.1941 48.286 58.021 50.837 58.0127 53.5279C58.0115 53.8051 58.0115 54.0871 58.0115 54.3727C58.0127 54.4568 58.0127 54.5421 58.0127 54.6263C58.0139 54.8312 58.0151 55.0362 58.0162 55.2459C58.0174 55.3467 58.0186 55.4509 58.0186 55.554C58.021 55.7495 58.0233 55.945 58.0257 56.1441C58.0269 56.2566 58.0292 56.3692 58.0304 56.4818C58.034 56.6749 58.0363 56.8692 58.0411 57.0647C58.0434 57.1856 58.0458 57.3088 58.0482 57.4308C58.0517 57.6204 58.0564 57.8124 58.0612 58.0055C58.0647 58.1347 58.0683 58.265 58.0718 58.3965C58.0777 58.5885 58.0825 58.7828 58.0884 58.9783C58.0931 59.1086 58.0967 59.239 58.1014 59.3705C58.1085 59.5719 58.1156 59.7769 58.1239 59.9819C58.1286 60.1098 58.1321 60.2378 58.138 60.3669C58.1463 60.5802 58.1558 60.7947 58.1652 61.0103C58.17 61.1359 58.1759 61.2603 58.1818 61.3859C58.1924 61.6146 58.2031 61.8445 58.2149 62.0755C58.2208 62.1928 58.2267 62.3078 58.2326 62.4251C58.2457 62.6834 58.261 62.9429 58.2764 63.2047C58.2811 63.2983 58.2859 63.3907 58.2918 63.4843C58.3343 64.2012 58.3816 64.9287 58.436 65.6692C58.442 65.7569 58.4491 65.8446 58.4562 65.9323C58.4774 66.2131 58.4987 66.4939 58.5212 66.7783C58.5318 66.9062 58.5425 67.0354 58.5531 67.1646C58.5732 67.4098 58.5933 67.6563 58.6158 67.9027C58.6288 68.0485 58.6418 68.1942 58.6548 68.3399C58.6761 68.5745 58.6974 68.8103 58.7199 69.0473C58.7341 69.2013 58.7494 69.3566 58.7648 69.5118C58.7873 69.7416 58.8109 69.9739 58.8346 70.2061C58.8511 70.3673 58.8677 70.5272 58.8854 70.6884C58.9091 70.9194 58.9339 71.1505 58.9599 71.3827C58.9788 71.5462 58.9966 71.7109 59.0155 71.8756C59.0415 72.1078 59.0687 72.3401 59.0959 72.5735C59.116 72.7405 59.1361 72.9076 59.1562 73.0747C59.1846 73.3105 59.2154 73.5474 59.2449 73.7844C59.2662 73.9503 59.2863 74.115 59.3088 74.2821C59.3407 74.5285 59.3738 74.7773 59.4081 75.025C59.4294 75.1837 59.4495 75.3402 59.472 75.4989C59.5098 75.775 59.55 76.0534 59.5902 76.3307C59.6091 76.4622 59.6269 76.5926 59.647 76.7241C59.7026 77.1021 59.7605 77.4824 59.8196 77.8627C59.8244 77.8971 59.8291 77.9303 59.835 77.9646C59.9001 78.3793 59.9675 78.7964 60.0372 79.2159C60.0573 79.3355 60.0786 79.4564 60.0987 79.5772C60.1484 79.8758 60.1992 80.1744 60.2513 80.4742C60.2785 80.6282 60.3069 80.7834 60.334 80.9363C60.3825 81.2041 60.4298 81.4707 60.4795 81.7384C60.5114 81.9091 60.5445 82.0809 60.5765 82.2515C60.6238 82.5051 60.6723 82.7598 60.7219 83.0146C60.7562 83.1911 60.7917 83.3688 60.8272 83.5466C60.8768 83.7966 60.9277 84.0466 60.9785 84.2966C61.0164 84.4791 61.0542 84.6603 61.0921 84.8428C61.1453 85.0916 61.1985 85.3416 61.2517 85.5917C61.2907 85.7729 61.3309 85.9542 61.3712 86.1355C61.4267 86.3891 61.4835 86.6426 61.5414 86.8974C61.5816 87.0763 61.623 87.2552 61.6644 87.4341C61.6845 87.523 61.7046 87.6119 61.7247 87.7019C61.5734 87.5514 61.4303 87.3571 61.3227 87.1047ZM111.69 133.446C108.396 134.888 104.617 134.888 101.324 133.446C85.3889 126.461 74.3367 111.751 68.4736 89.7233C64.5842 75.1257 64.0437 60.7923 64.0674 53.5468C64.0709 52.6013 64.4671 51.7399 65.1837 51.1214C65.2665 51.0491 65.354 50.9828 65.4415 50.9212C65.4699 50.901 65.4995 50.8832 65.529 50.8631C65.5893 50.8228 65.652 50.7849 65.7147 50.7482C65.749 50.7292 65.7845 50.7103 65.8199 50.6925C65.8802 50.6605 65.9417 50.6309 66.0032 50.6036C66.0399 50.5882 66.0754 50.5716 66.112 50.5574C66.1794 50.5302 66.248 50.5076 66.3166 50.4851C66.3485 50.4757 66.3793 50.4638 66.4112 50.4543C66.5117 50.4259 66.6134 50.4022 66.7163 50.3832C66.7317 50.3809 66.7471 50.3797 66.7624 50.3773C66.8511 50.3631 66.941 50.3512 67.0321 50.3441C67.0675 50.3418 67.1042 50.3418 67.1397 50.3394C67.2153 50.3358 67.291 50.3347 67.3679 50.337C67.3939 50.337 67.4211 50.3382 67.4483 50.3394C67.5524 50.3453 67.6564 50.3536 67.7617 50.369L72.5794 51.0693C75.7865 51.5349 79.0031 51.5764 82.1877 51.1984C82.2397 51.1925 82.2918 51.1878 82.345 51.1818C82.4372 51.17 82.5295 51.1558 82.6229 51.1439C83.7061 51.0017 84.7858 50.8133 85.8595 50.574C85.8749 50.5704 85.8891 50.5669 85.9045 50.5633C86.1788 50.5017 86.4544 50.4377 86.7287 50.369H86.7311H86.7323C86.7323 50.369 86.7334 50.369 86.7334 50.3678C91.3608 49.2256 95.7291 47.2161 99.7167 44.3925L106.506 39.5855L113.295 44.3925C121.32 50.0764 130.955 52.4485 140.43 51.0693L145.249 50.3678C146.19 50.2304 147.106 50.4982 147.828 51.1214C148.544 51.7411 148.942 52.6025 148.944 53.5457V53.5468C149.007 72.6327 145.503 118.625 111.69 133.446Z" fill="#5F4A37"/>
</svg>
