<svg width="45" height="45" viewBox="0 0 45 45" fill="none" xmlns="http://www.w3.org/2000/svg">
<g clip-path="url(#clip0_106_489)">
<path d="M22.5 45C34.9264 45 45 34.9264 45 22.5C45 10.0736 34.9264 0 22.5 0C10.0736 0 0 10.0736 0 22.5C0 34.9264 10.0736 45 22.5 45Z" fill="#4065D6"/>
<path d="M32.8766 28.9303C32.3496 29.0043 29.7887 28.9303 29.6555 28.9303C28.9934 28.937 28.3553 28.6828 27.8792 28.2227C27.3374 27.7016 26.8489 27.1273 26.3309 26.5855C26.1736 26.4204 26.0044 26.267 25.8246 26.1266C25.4012 25.8039 24.9838 25.8779 24.7855 26.3753C24.6301 26.9144 24.5231 27.4663 24.4657 28.0243C24.4565 28.2594 24.3543 28.4812 24.1817 28.6411C24.0091 28.8009 23.7801 28.8858 23.545 28.877C23.1957 28.8947 22.8463 28.9036 22.4999 28.8947C21.2399 28.8882 19.9992 28.5839 18.8792 28.0066C17.6701 27.3309 16.6161 26.4091 15.7855 25.3006C14.4564 23.5457 13.3079 21.6612 12.3572 19.6756C12.3068 19.575 11.3091 17.4523 11.2855 17.3546C11.2236 17.2155 11.2177 17.0579 11.269 16.9146C11.3202 16.7712 11.4247 16.6532 11.5608 16.5849C11.7384 16.5168 15.0276 16.5849 15.0809 16.5849C15.3258 16.5825 15.565 16.6585 15.7637 16.8018C15.9624 16.9451 16.11 17.1481 16.1851 17.3812C16.7934 18.9321 17.6242 20.3861 18.6512 21.6977C18.7945 21.8745 18.9631 22.0291 19.1516 22.1566C19.2001 22.2035 19.2604 22.2365 19.326 22.2523C19.3916 22.2681 19.4603 22.2661 19.5249 22.2465C19.5895 22.2269 19.6477 22.1904 19.6934 22.1407C19.7392 22.0911 19.7708 22.0301 19.7851 21.9641C19.9152 21.5361 19.9918 21.0936 20.0131 20.6467C20.0309 19.7585 20.0131 19.1664 19.9628 18.2783C19.9807 17.9756 19.8785 17.6781 19.6784 17.4503C19.4783 17.2225 19.1965 17.0828 18.894 17.0615C18.6335 17.0171 18.598 16.8039 18.7786 16.5908C19.1249 16.1497 19.6045 16.0786 20.1256 16.052C20.9131 16.0076 21.7036 16.052 22.494 16.052H22.6657C23.0128 16.0511 23.359 16.0858 23.6989 16.1556C23.8977 16.1963 24.078 16.3001 24.213 16.4517C24.348 16.6032 24.4304 16.7942 24.448 16.9964C24.4879 17.2201 24.5057 17.4471 24.5012 17.6743C24.4805 18.6424 24.4332 19.6105 24.4213 20.5816C24.4142 20.9651 24.449 21.3483 24.5249 21.7243C24.6404 22.2395 24.9927 22.3697 25.3539 21.9937C25.804 21.5106 26.2167 20.994 26.5884 20.4483C27.2569 19.4548 27.8073 18.3867 28.2285 17.2658C28.4565 16.6914 28.6312 16.5641 29.2499 16.5641H32.7404C32.9487 16.5607 33.1562 16.5886 33.3562 16.647C33.4267 16.6658 33.4927 16.699 33.5499 16.7443C33.6071 16.7897 33.6544 16.8463 33.6889 16.9107C33.7233 16.9751 33.7441 17.0459 33.75 17.1187C33.756 17.1915 33.7468 17.2647 33.7233 17.3339C33.5192 18.0766 33.1689 18.771 32.693 19.3766C31.9825 20.3803 31.2364 21.3602 30.5082 22.3372C30.416 22.465 30.3319 22.5985 30.2565 22.7368C29.9841 23.2283 30.0049 23.5066 30.3986 23.921C31.0322 24.5724 31.7101 25.1852 32.32 25.8543C32.7698 26.3418 33.1759 26.8678 33.5338 27.4263C33.9838 28.1487 33.7085 28.8118 32.8766 28.9303Z" fill="white"/>
</g>
<defs>
<clipPath id="clip0_106_489">
<rect width="45" height="45" fill="white"/>
</clipPath>
</defs>
</svg>
